<?xml version="1.0" encoding="UTF-8" standalone="no"?>
<svg
   xmlns:dc="http://purl.org/dc/elements/1.1/"
   xmlns:cc="http://creativecommons.org/ns#"
   xmlns:rdf="http://www.w3.org/1999/02/22-rdf-syntax-ns#"
   xmlns:svg="http://www.w3.org/2000/svg"
   xmlns="http://www.w3.org/2000/svg"
   xmlns:sodipodi="http://sodipodi.sourceforge.net/DTD/sodipodi-0.dtd"
   xmlns:inkscape="http://www.inkscape.org/namespaces/inkscape"
   version="1.1"
   x="0px"
   y="0px"
   viewBox="0 0 2238.9922 722.11371"
   xml:space="preserve"
   id="svg198"
   sodipodi:docname="CARAWEB.svg"
   inkscape:version="1.0.1 (3bc2e813f5, 2020-09-07)"
   width="2238.9922"
   height="722.11371"><metadata
   id="metadata204"><rdf:RDF><cc:Work
       rdf:about=""><dc:format>image/svg+xml</dc:format><dc:type
         rdf:resource="http://purl.org/dc/dcmitype/StillImage" /><dc:title></dc:title></cc:Work></rdf:RDF></metadata><defs
   id="defs202" /><sodipodi:namedview
   pagecolor="#ffffff"
   bordercolor="#666666"
   borderopacity="1"
   objecttolerance="10"
   gridtolerance="10"
   guidetolerance="10"
   inkscape:pageopacity="0"
   inkscape:pageshadow="2"
   inkscape:window-width="1920"
   inkscape:window-height="1017"
   id="namedview200"
   showgrid="false"
   inkscape:zoom="0.328125"
   inkscape:cx="1733.1062"
   inkscape:cy="496.69982"
   inkscape:window-x="-8"
   inkscape:window-y="79"
   inkscape:window-maximized="1"
   inkscape:current-layer="svg198"
   inkscape:document-rotation="0"
   fit-margin-top="0"
   fit-margin-left="0"
   fit-margin-right="0"
   fit-margin-bottom="0" />
<style
   type="text/css"
   id="style2">
	.st0{fill-rule:evenodd;clip-rule:evenodd;fill:#E20909;}
	.st1{fill-rule:evenodd;clip-rule:evenodd;fill:#FCEF3C;stroke:#020202;stroke-miterlimit:10;}
	.st2{display:none;}
	.st3{display:inline;fill:none;stroke:#E20909;stroke-width:10;stroke-miterlimit:10;}
	.st4{display:none;stroke:#000000;stroke-width:9.380000e-02;}
	.st5{fill:#FCEF3C;stroke:#000000;stroke-width:2.3755;}
	.st6{fill:#0C090A;stroke:#0C090A;stroke-width:9.380000e-02;}
	.st7{fill:#C68282;stroke:#C68282;stroke-width:9.380000e-02;}
	.st8{fill:#FFFFFF;stroke:#000000;stroke-miterlimit:10;}
	.st9{fill:#CD6095;stroke:#CD6095;stroke-width:9.380000e-02;}
	.st10{display:none;opacity:0.99;fill:#E20909;stroke:#000000;stroke-width:3;enable-background:new    ;}
	.st11{display:none;fill:#FFFFFF;stroke:#000000;stroke-miterlimit:10;}
	.st12{stroke:#000000;stroke-width:9.380000e-02;}
	.st13{display:inline;}
	.st14{fill-rule:evenodd;clip-rule:evenodd;fill:#E20909;stroke:#000000;stroke-width:2.2649;}
	.st15{fill-rule:evenodd;clip-rule:evenodd;fill:#E20909;stroke:#000000;stroke-width:2.2594;}
	.st16{opacity:0.99;fill-rule:evenodd;clip-rule:evenodd;fill:#FFFF00;stroke:#000000;stroke-width:3;enable-background:new    ;}
	.st17{opacity:0.99;fill-rule:evenodd;clip-rule:evenodd;fill:#E20909;stroke:#000000;stroke-width:3;enable-background:new    ;}
	.st18{display:inline;fill-rule:evenodd;clip-rule:evenodd;fill:#FCEF3C;stroke:#000000;stroke-width:3;}
	.st19{fill:#FCEF3C;stroke:#000000;stroke-width:1.8882;}
	.st20{display:inline;stroke:#000000;stroke-width:9.380000e-02;}
	.st21{display:inline;fill:#FCEF3C;stroke:#000000;stroke-width:2.3755;}
	.st22{display:inline;fill:#0C090A;stroke:#0C090A;stroke-width:9.380000e-02;}
	.st23{display:inline;fill:#C68282;stroke:#C68282;stroke-width:9.380000e-02;}
	.st24{display:inline;fill:#CD6095;stroke:#CD6095;stroke-width:9.380000e-02;}
	.st25{display:inline;fill:#FCEF3C;stroke:#000000;stroke-width:1.8882;}
	.st26{fill-rule:evenodd;clip-rule:evenodd;fill:#FCEF3C;stroke:#000000;stroke-width:1.8882;}
	.st27{fill-rule:evenodd;clip-rule:evenodd;fill:#FCEF3C;stroke:#000000;stroke-width:2.3755;}
</style>
<g
   id="Calque_2"
   transform="translate(-45.034104,-0.18631436)">
	<g
   id="Calque_5">
		<path
   id="path2855"
   class="st0"
   d="m 383.8,722.3 c 0,0 327.9,-123.4 327.9,-437 0,-313.6 0,-284.1 0,-284.1 H 56 v 284.1 c 0,313.6 327.8,437 327.8,437 z" />
	</g>
</g>
<g
   id="Calque_3_1_"
   transform="translate(-45.034104,-0.18631436)">
	<g
   id="Calque_4">
		<g
   id="g18985_2_"
   transform="matrix(0.43266284,0,0,0.44540976,37.35161,19.350287)">
			<g
   id="g18987_2_">
			</g>
			<g
   id="g18989_2_">
				<g
   id="g18991_2_"
   transform="matrix(1.588788,0,0,1.588808,-3219.717,-736.3813)">
					<path
   id="path18993_2_"
   class="st1"
   d="m 2531,480.1 c -14.9,0 -29.7,1 -44.1,2.4 -1,41.3 -34.5,73.8 -75.9,73.8 -16.3,0 -31.3,-5.3 -43.2,-13.9 -7.2,-7.7 -14.4,-15.4 -21.5,-22.6 -17.3,7.7 -34,16.8 -50.4,26.8 5.8,5.3 11.5,11.1 16.8,16.3 2.9,3.4 6.3,6.7 9.6,10.1 l 0.5,0.5 c 70.6,76.4 119,173.8 134.3,281.6 -121.4,-17.3 -229,-75.9 -308.6,-161.3 -10.1,15.9 -18.8,32.6 -26.8,49.9 6.3,6.3 13,12.5 19.2,18.8 10.6,13 17.3,29.7 17.3,48 0,41.3 -33.1,74.9 -74.3,75.9 -1.4,13.9 -1.9,28.4 -1.9,43.2 0,15.4 1,30.7 2.4,46.1 40.8,1 73.8,34.5 73.8,75.9 0,14.9 -4.3,28.4 -11.5,40.3 -8.7,7.7 -16.8,15.4 -25,23.6 8.2,17.8 17.3,35 27.8,51.8 79.6,-84.4 186.6,-143 307.1,-159.8 -17.8,120 -76.4,227 -160.8,306.2 16.3,10.1 33.1,18.8 50.4,26.8 6.3,-6.3 13,-13 18.8,-19.7 13,-10.6 29.2,-16.8 47.5,-16.8 41.3,0 74.9,33.1 75.9,74.3 14.4,1.4 28.4,1.9 43.2,1.9 15.4,0 30.7,-1 46.1,-2.4 v 0 c 1,-40.8 34.5,-73.8 75.9,-73.8 14.9,0 28.7,4.3 40.3,11.5 7.7,8.7 15.4,16.8 23.6,24.4 17.8,-8.2 35,-17.3 51.8,-27.8 -83.9,-78.8 -142,-185.2 -159.8,-304.7 119.5,17.8 225.6,75.9 304.7,159.3 10.1,-16.8 19.7,-34 27.8,-51.8 -7.2,-7.2 -14.9,-14.4 -22.6,-21.5 -8.7,-12.5 -13.9,-27.3 -13.9,-43.2 0,-41.3 33.1,-74.9 73.8,-75.9 1.4,-14.4 2.4,-29.2 2.4,-44.6 0,-14.9 -1,-29.7 -2.4,-44.1 -40.8,-1 -73.8,-34.5 -73.8,-75.9 0,-16.3 5.3,-31.3 13.9,-43.7 7.7,-6.7 15.4,-13.9 22.6,-21.2 -7.7,-17.3 -16.8,-34 -26.8,-50.4 -5.8,5.8 -11.5,12 -17.3,17.8 -3.4,2.9 -6.7,6.3 -10.1,9.6 -76,70.2 -172,118.1 -279,134 17.3,-120.5 75.4,-228 160.3,-307.1 -16.8,-10.6 -34,-19.7 -51.8,-27.8 -7.2,7.2 -14.4,14.9 -21.2,22.6 -12.5,8.7 -27.3,13.9 -43.7,13.9 -41.3,0 -74.9,-33.1 -75.9,-73.8 -15.8,-2.5 -30.6,-3.5 -45.5,-3.5 z m 0,45.6 c 17.3,46.5 61,79.6 112.3,83 -58.6,87.8 -94,192.9 -96.9,305.7 112.8,-2.9 217.9,-38.4 305.7,-96.9 3.4,51.3 36.9,94.5 83,112.3 -46.1,17.3 -80.1,60.5 -83,112.3 -87.8,-58.6 -192.9,-94 -305.7,-96.9 2.9,112.8 38.4,217.9 96.9,305.7 -50.9,3.8 -93.6,37.4 -110.9,83 -17.3,-46.5 -61.4,-80.6 -113.8,-83 58.6,-87.8 94,-192.9 96.9,-305.7 -112.8,2.9 -217.9,38.4 -305.7,96.9 -3.8,-50.9 -37.4,-93.6 -83,-110.9 46.5,-17.3 80.6,-61.4 83,-113.8 87.8,58.6 192.4,94 305.7,96.9 -2.9,-112.8 -38.4,-217.9 -96.9,-305.7 51.5,-3.2 95.1,-36.7 112.4,-82.9 z" />
					<g
   id="g18995_2_">
						<path
   id="path18997_2_"
   class="st1"
   d="m 2581.4,487.3 c 0,27.8 -22.6,50.4 -50.4,50.4 -27.8,0 -50.4,-22.6 -50.4,-50.4 0,-27.8 22.6,-50.4 50.4,-50.4 27.8,0.1 50.4,22.5 50.4,50.4 z" />
						<path
   id="path18999_2_"
   class="st1"
   d="m 2353.4,521.4 c 13.9,23.9 5.8,54.7 -18.3,68.7 -23.9,13.9 -54.7,5.8 -68.7,-18.3 -13.9,-23.9 -5.8,-54.7 18.3,-68.7 24.1,-13.8 54.9,-5.7 68.7,18.3 z" />
						<path
   id="path19001_2_"
   class="st1"
   d="m 2266.1,1287.4 c 13.9,-23.9 44.6,-32.1 68.7,-18.3 23.9,13.9 32.1,44.6 18.3,68.7 -13.9,23.9 -44.6,32.1 -68.7,18.3 -23.6,-14 -31.8,-44.8 -18.3,-68.7 z" />
						<path
   id="path19003_2_"
   class="st1"
   d="m 2480.6,1371.8 c 0,-27.8 22.6,-50.4 50.4,-50.4 27.8,0 50.4,22.6 50.4,50.4 0,27.8 -22.6,50.4 -50.4,50.4 -27.8,0 -50.4,-22.6 -50.4,-50.4 z" />
						<path
   id="path19005_2_"
   class="st1"
   d="m 2708.6,1337.6 c -13.9,-23.9 -5.8,-54.7 18.3,-68.7 23.9,-13.9 54.7,-5.8 68.7,18.3 13.9,23.9 5.8,54.7 -18.3,68.7 -24.1,14 -54.8,5.8 -68.7,-18.3 z" />
						<path
   id="path19007_2_"
   class="st1"
   d="m 2889,1194.2 c -23.9,-13.9 -32.1,-44.6 -18.3,-68.7 13.9,-23.9 44.6,-32.1 68.7,-18.3 23.9,13.9 32.1,44.6 18.3,68.7 -14,24.1 -44.6,32.2 -68.7,18.3 z" />
						<path
   id="path19009_2_"
   class="st1"
   d="m 2973.1,979.8 c -27.8,0 -50.4,-22.6 -50.4,-50.4 0,-27.8 22.6,-50.4 50.4,-50.4 27.8,0 50.4,22.6 50.4,50.4 0,27.8 -22.7,50.4 -50.4,50.4 z" />
						<path
   id="path19011_2_"
   class="st1"
   d="m 2938.9,751.8 c -23.9,13.9 -54.7,5.8 -68.7,-18.3 -13.9,-23.9 -5.8,-54.7 18.3,-68.7 23.9,-13.9 54.7,-5.8 68.7,18.3 14.3,24.1 5.8,55.2 -18.3,68.7 z" />
						<path
   id="path19013_2_"
   class="st1"
   d="m 2795.5,571.9 c -13.9,23.9 -44.6,32.1 -68.7,18.3 -24.1,-13.9 -32.1,-44.6 -18.3,-68.7 13.9,-23.9 44.6,-32.1 68.7,-18.3 24,13.8 32.2,44.6 18.3,68.7 z" />
						<path
   id="path19015_2_"
   class="st1"
   d="m 2173,664.9 c 23.9,13.9 32.1,44.6 18.3,68.7 -13.9,24.1 -44.6,32.1 -68.7,18.3 -24.1,-13.8 -32.1,-44.6 -18.3,-68.7 14,-24 44.7,-32.2 68.7,-18.3 z" />
						<path
   id="path19017_2_"
   class="st1"
   d="m 2088.6,879.5 c 27.8,0 50.4,22.6 50.4,50.4 0,27.8 -22.6,50.4 -50.4,50.4 -27.8,0 -50.4,-22.6 -50.4,-50.4 0,-27.8 23,-50.4 50.4,-50.4 z" />
						<path
   id="path19019_2_"
   class="st1"
   d="m 2122.6,1107.4 c 23.9,-13.9 54.7,-5.8 68.7,18.3 13.9,23.9 5.8,54.7 -18.3,68.7 -23.9,13.9 -54.7,5.8 -68.7,-18.3 -13.9,-24.1 -5.7,-54.8 18.3,-68.7 z" />
					</g>
				</g>
			</g>
			<g
   id="g19021_2_">
			</g>
			<g
   id="g19023_2_">
			</g>
		</g>
	</g>
</g>
<g
   id="Calque_1"
   transform="translate(-45.034104,-0.18631436)">
	<g
   id="g195">
		<g
   class="st2"
   id="g31">
			<path
   class="st3"
   d="m 216.3,35.2 h 5.4 c 1.1,0 2.1,0.3 3.2,0.3 10.3,1.1 20,4.6 29.2,9.2 12.9,6.8 24.6,15.4 35.7,24.9 1.4,1.4 3.2,2.9 4.6,4.3 2.9,-1.1 5.7,-2.5 8.6,-3.5 22.8,-9.2 47.5,-14.6 72.1,-16.4 11.8,-0.7 23.8,-1.1 35.7,0 27.1,1.8 54.2,8.9 78.3,21.1 0.3,0.3 1.1,0.3 1.8,0.7 7.1,-6.8 14.2,-12.8 22,-18.5 8.9,-6.4 18.6,-12.5 29.2,-16.4 7.1,-2.9 14.9,-4.6 22.8,-4.9 h 5.4 c 1.8,0.3 3.5,0 5.4,0.7 0.3,0 0.7,0.3 0.7,0.7 6.4,6.8 11.1,15.4 14.3,23.8 4.3,11.8 6.4,23.8 7.5,36.4 1.4,23.8 -2.9,48.4 -12.1,70.6 -0.3,1.1 -1.1,2.1 -0.3,2.9 9.7,19.7 16,40.3 19.2,61.7 2.5,16.8 2.9,34.3 1.4,51 2.5,0.3 4.6,0 7.1,0 6.4,0 13.2,0 19.7,0 v 2.5 c -8.9,0 -18.2,0 -27.1,0 -1.1,7.8 -2.5,16 -4.6,23.8 7.8,1.8 16,3.5 23.8,5.4 0.3,0.7 -0.3,1.8 -0.3,2.5 -7.8,-1.8 -15.7,-3.5 -23.5,-5.4 -0.3,0 -1.1,-0.3 -1.1,0.3 -2.5,7.5 -5.4,14.6 -9.2,21.4 -0.3,0.3 0,0.7 0.3,1.1 4.3,2.9 8.2,5.7 12.5,8.6 0.7,0.3 1.4,1.1 2.1,1.4 -0.3,0.7 -1.1,1.4 -1.4,2.1 -1.8,-1.1 -3.2,-2.1 -4.6,-3.2 -2.9,-2.1 -5.7,-4 -8.6,-6 -0.7,-0.3 -1.4,-1.1 -2.1,-1.4 -4.9,8.2 -11.1,15.7 -18.2,22.1 -13.5,12.5 -30.3,21.4 -47.8,27.1 -10.7,3.5 -21.7,6.4 -32.8,8.6 2.5,4 4.6,7.8 6.8,12.1 2.5,4.9 4.6,10.3 6.8,15.7 1.8,4.3 3.5,8.9 4.9,13.2 1.8,5.4 3.5,11.1 4.6,16.8 0.7,3.2 1.1,6.8 0.7,10 -0.3,2.1 -0.7,4 -1.8,5.7 -1.1,1.8 -2.9,3.5 -4.6,4.3 -2.9,1.1 -6.4,1.1 -9.7,0 -4,-1.4 -7.5,-4 -10.7,-7.1 -1.1,-0.7 -1.8,-2.1 -2.9,-2.9 0,14.9 -0.3,30 -3.2,44.6 -1.8,8.9 -4.6,17.5 -9.7,24.9 -0.7,1.1 -1.4,2.1 -2.5,3.2 0.7,3.2 1.1,6.4 1.1,9.7 0,5.7 0,11.4 -0.3,16.8 -0.3,4.3 -1.1,8.9 -3.2,12.9 -1.4,2.9 -4,5.4 -7.1,6.8 -3.2,1.4 -6.8,1.8 -10,1.8 -4.3,0 -8.6,-1.4 -11.8,-4.3 -3.2,-2.9 -4.6,-7.1 -5.7,-11.4 -0.7,-4 -1.1,-7.8 -1.1,-11.8 -2.1,0.3 -4.3,0.7 -6,1.1 -10.7,1.8 -21.7,2.1 -32.4,2.1 -11.4,0 -22.8,-0.7 -33.8,-2.5 -1.4,0 -2.9,-0.7 -4.3,-0.7 -0.3,5.7 -0.3,11.4 -2.5,16.8 -1.4,3.5 -4,7.1 -7.5,8.9 -4,2.1 -8.9,2.5 -13.2,1.8 -4.3,-0.7 -8.6,-2.9 -11.1,-6.4 -2.9,-4.3 -4,-9.7 -4.3,-14.6 -0.3,-3.5 -0.3,-7.5 -0.3,-11.1 0,-3.6 0,-7.1 0.3,-10.7 0,-1.8 0.3,-3.2 0.7,-4.9 -2.1,-2.5 -4,-5.4 -5.4,-8.6 -0.3,-1.1 -1.8,-1.4 -2.5,-2.1 -16.8,-10 -31.4,-23.2 -44.2,-37.5 -13.5,-14.9 -25.7,-31.7 -36.7,-48.9 -1.1,-1.4 -1.8,-2.9 -2.9,-4.3 -1.8,-3.2 -2.5,-6.8 -2.1,-10.3 0.3,-1.8 0.7,-4 2.1,-4.9 1.4,-1.1 3.5,-1.4 4.9,-0.7 2.1,0.7 4,2.5 5.4,4.3 11.8,17.5 24.6,33.8 38.9,48.9 7.5,7.8 15.4,15.4 24.3,21.7 1.4,1.1 2.9,2.5 4.6,3.2 -0.7,-6 -1.1,-12.5 -1.4,-18.6 -0.3,-4 0,-8.2 -0.3,-12.1 -1.4,0.7 -2.5,2.1 -4,2.9 -2.5,1.8 -5.4,3.2 -8.2,4 -2.1,0.3 -4.3,0.3 -6.4,0 -2.9,-0.3 -5.4,-1.4 -7.5,-3.2 -2.1,-2.1 -3.2,-4.9 -3.2,-8.2 0,-4.6 1.1,-9.2 2.5,-13.5 3.5,-10.3 8.9,-20 12.9,-30.3 2.5,-5.7 4.9,-11.1 7.8,-16.4 1.1,-2.1 2.5,-4.6 4,-6.8 -11.1,-1.8 -22.1,-4.6 -32.8,-8.2 -18.2,-6 -35.7,-14.6 -49.9,-27.5 -6.4,-5.7 -12.1,-12.1 -16.8,-19.2 -1.1,-1.4 -1.4,-2.9 -2.5,-4 -4.6,3.2 -8.9,6 -13.2,9.2 -1.1,0.7 -1.8,1.4 -2.9,2.1 -0.3,-0.7 -1.1,-1.4 -1.4,-2.1 1.4,-1.4 3.2,-2.5 4.9,-3.5 3.5,-2.5 7.5,-4.9 11.1,-7.8 0.3,-0.3 0,-0.7 0,-1.1 -4,-6.4 -6.4,-13.5 -8.9,-20.7 -8.2,1.8 -16.4,3.5 -24.6,5.4 0,-0.7 -0.7,-1.8 -0.3,-2.5 7.8,-1.8 16,-3.5 24.3,-5.4 -1.1,-4.3 -2.1,-8.6 -3.2,-12.9 -0.7,-3.5 -1.1,-7.5 -1.8,-11.1 -8.9,0 -18.2,0 -27.1,0 V 283 c 8.2,0 16.4,0 24.3,0 0.7,0 1.4,0 2.5,0 -1.4,-15.7 -1.1,-31.4 0.3,-47 2.5,-23.8 8.6,-47.5 18.6,-69.2 0.3,-0.3 0.3,-1.1 0,-1.4 -7.5,-18.6 -11.4,-38.1 -11.8,-58.1 0,-13.5 1.4,-27.5 5.4,-40.6 3.2,-11.1 8.2,-21.7 16.4,-30 0.3,-0.3 0.7,-0.7 1.1,-1.1 1.6,-0.4 3.5,-0.1 5.2,-0.4"
   id="path29" />
		</g>
		<g
   id="g63">
			<g
   id="g61">
				<path
   class="st4"
   d="m 156.6,62 h 6.9 c 1.4,0 2.6,0.4 4.1,0.4 13.3,1.4 25.8,5.9 37.7,11.9 16.6,8.8 31.7,19.8 46,32.2 1.9,1.9 4.1,3.7 5.9,5.5 3.7,-1.4 7.4,-3.3 11.1,-4.5 29.4,-11.9 61.2,-18.8 92.9,-21.1 15.2,-0.9 30.8,-1.4 46,0 34.9,2.3 69.8,11.4 101.1,27.1 0.4,0.4 1.4,0.4 2.3,0.9 9.2,-8.8 18.5,-16.6 28.4,-23.9 11.4,-8.2 23.9,-16.1 37.7,-21.1 9.2,-3.7 19.2,-5.9 29.4,-6.4 h 6.9 c 2.3,0.4 4.5,0 6.9,0.9 0.4,0 0.9,0.4 0.9,0.9 8.2,8.8 14.3,19.8 18.5,30.8 5.5,15.2 8.2,30.8 9.7,46.9 1.9,30.8 -3.7,62.4 -15.6,91.1 -0.4,1.4 -1.4,2.6 -0.4,3.7 12.4,25.4 20.7,52 24.8,79.5 3.3,21.6 3.7,44.2 1.9,65.7 3.3,0.4 5.9,0 9.2,0 8.2,0 17,0 25.4,0 v 3.3 c -11.4,0 -23.5,0 -34.9,0 -1.4,10.1 -3.3,20.7 -5.9,30.8 10.1,2.3 20.7,4.5 30.8,6.9 0.4,0.9 -0.4,2.3 -0.4,3.3 -10.1,-2.3 -20.2,-4.5 -30.3,-6.9 -0.4,0 -1.4,-0.4 -1.4,0.4 -3.3,9.7 -6.9,18.8 -11.9,27.6 -0.4,0.4 0,0.9 0.4,1.4 5.5,3.7 10.7,7.4 16.1,11.1 0.9,0.4 1.9,1.4 2.6,1.9 -0.4,0.9 -1.4,1.9 -1.9,2.6 -2.3,-1.4 -4.1,-2.6 -5.9,-4.1 -3.7,-2.6 -7.4,-5.1 -11.1,-7.8 -0.9,-0.4 -1.9,-1.4 -2.6,-1.9 -6.4,10.7 -14.3,20.2 -23.5,28.4 -17.5,16.1 -39.1,27.6 -61.6,34.9 -13.7,4.5 -28,8.2 -42.3,11.1 3.3,5.1 5.9,10.1 8.8,15.6 3.3,6.4 5.9,13.3 8.8,20.2 2.3,5.5 4.5,11.4 6.4,17 2.3,6.9 4.5,14.3 5.9,21.6 0.9,4.1 1.4,8.8 0.9,12.9 -0.4,2.6 -0.9,5.1 -2.3,7.4 -1.4,2.3 -3.7,4.5 -5.9,5.5 -3.7,1.4 -8.2,1.4 -12.4,0 -5.1,-1.9 -9.7,-5.1 -13.7,-9.2 -1.4,-0.9 -2.3,-2.6 -3.7,-3.7 0,19.2 -0.4,38.7 -4.1,57.4 -2.3,11.4 -5.9,22.5 -12.4,32.2 -0.9,1.4 -1.9,2.6 -3.3,4.1 0.9,4.1 1.4,8.2 1.4,12.4 0,7.4 0,14.7 -0.4,21.6 -0.4,5.5 -1.4,11.4 -4.1,16.6 -1.9,3.7 -5.1,6.9 -9.2,8.8 -4.1,1.9 -8.8,2.3 -12.9,2.3 -5.5,0 -11.1,-1.9 -15.2,-5.5 -4.1,-3.7 -5.9,-9.2 -7.4,-14.7 -0.9,-5.1 -1.4,-10.1 -1.4,-15.2 -2.6,0.4 -5.5,0.9 -7.8,1.4 -13.7,2.3 -28,2.6 -41.7,2.6 -14.7,0 -29.4,-0.9 -43.6,-3.3 -1.9,0 -3.7,-0.9 -5.5,-0.9 -0.4,7.4 -0.4,14.7 -3.3,21.6 -1.9,4.5 -5.1,9.2 -9.7,11.4 -5.1,2.6 -11.4,3.3 -17,2.3 -5.5,-0.9 -11.1,-3.7 -14.3,-8.2 -3.7,-5.5 -5.1,-12.4 -5.5,-18.8 -0.4,-4.5 -0.4,-9.7 -0.4,-14.3 0,-4.7 0,-9.2 0.4,-13.7 0,-2.3 0.4,-4.1 0.9,-6.4 -2.6,-3.3 -5.1,-6.9 -6.9,-11.1 -0.4,-1.4 -2.3,-1.9 -3.3,-2.6 -21.6,-12.9 -40.5,-29.9 -56.9,-48.3 -17.5,-19.2 -33.2,-41 -47.3,-63.1 -1.4,-1.9 -2.3,-3.7 -3.7,-5.5 -2.3,-4.1 -3.3,-8.8 -2.6,-13.3 0.4,-2.3 0.9,-5.1 2.6,-6.4 1.9,-1.4 4.5,-1.9 6.4,-0.9 2.6,0.9 5.1,3.3 6.9,5.5 15.2,22.5 31.7,43.6 50.1,63.1 9.7,10.1 19.8,19.8 31.3,28 1.9,1.4 3.7,3.3 5.9,4.1 -0.9,-7.8 -1.4,-16.1 -1.9,-23.9 -0.4,-5.1 0,-10.7 -0.4,-15.6 -1.9,0.9 -3.3,2.6 -5.1,3.7 -3.3,2.3 -6.9,4.1 -10.7,5.1 -2.6,0.4 -5.5,0.4 -8.2,0 -3.7,-0.4 -6.9,-1.9 -9.7,-4.1 -2.6,-2.6 -4.1,-6.4 -4.1,-10.7 0,-5.9 1.4,-11.9 3.3,-17.5 4.5,-13.3 11.4,-25.8 16.6,-39.1 3.3,-7.4 6.4,-14.3 10.1,-21.1 1.4,-2.6 3.3,-5.9 5.1,-8.8 -14.3,-2.3 -28.4,-5.9 -42.3,-10.7 -23.5,-7.8 -46,-18.8 -64.3,-35.4 -8.2,-7.4 -15.6,-15.6 -21.6,-24.8 -1.4,-1.9 -1.9,-3.7 -3.3,-5.1 -5.9,4.1 -11.4,7.8 -17,11.9 -1.4,0.9 -2.3,1.9 -3.7,2.6 -0.4,-0.9 -1.4,-1.9 -1.9,-2.6 1.9,-1.9 4.1,-3.3 6.4,-4.5 4.5,-3.3 9.7,-6.4 14.3,-10.1 0.4,-0.4 0,-0.9 0,-1.4 -5.1,-8.2 -8.2,-17.5 -11.4,-26.6 -10.7,2.3 -21.1,4.5 -31.7,6.9 0,-0.9 -0.9,-2.3 -0.4,-3.3 10.1,-2.3 20.7,-4.5 31.3,-6.9 -1.4,-5.5 -2.6,-11.1 -4.1,-16.6 -0.9,-4.5 -1.4,-9.7 -2.3,-14.3 -11.4,0 -23.5,0 -34.9,0 v -2.3 c 10.7,0 21.1,0 31.3,0 0.9,0 1.9,0 3.3,0 -1.9,-20.2 -1.4,-40.5 0.4,-60.6 3.3,-30.8 11.1,-61.2 23.9,-89.2 0.4,-0.4 0.4,-1.4 0,-1.9 -9.7,-23.9 -14.7,-49.1 -15.2,-74.9 0,-17.5 1.9,-35.4 6.9,-52.4 4.1,-14.3 10.7,-28 21.1,-38.7 0.4,-0.4 0.9,-0.9 1.4,-1.4 1.5,0.3 3.8,0.8 6.1,0.3 m 97.8,207.7 c -16.1,1.4 -31.3,9.2 -42.3,20.7 -10.1,10.6 -16.1,24.4 -17.4,38.7 -1.4,13.3 1.4,27.6 8.2,39.1 5.5,10.1 13.7,18.5 23.9,24.4 16.1,9.7 36.2,11.9 54.3,6.4 7.4,-2.3 14.3,-5.9 20.2,-10.1 13.7,-10.1 23.5,-26.1 25.8,-43.2 0.9,-4.5 0.9,-9.7 0.4,-14.3 -0.9,-16.1 -7.8,-31.7 -19.2,-42.7 -9.2,-9.2 -20.7,-15.6 -33.5,-18.5 -7.1,-0.9 -13.9,-0.9 -20.4,-0.5 m 247.7,1.5 c -17.5,1.4 -33.9,10.1 -45,23.5 -9.2,10.7 -14.7,24.4 -15.6,38.7 0,5.1 0,10.1 0.4,14.7 2.3,16.1 11.1,30.8 23.9,41.3 11.9,9.7 27.1,15.2 42.7,14.7 11.1,0 22.1,-2.6 31.7,-8.2 10.7,-5.9 19.2,-14.7 25.4,-24.8 7.4,-12.9 10.1,-28 8.2,-42.3 -1.9,-13.7 -7.8,-26.6 -17.5,-36.2 -8.2,-8.8 -18.5,-15.2 -29.9,-18.5 -7.7,-2.9 -16,-3.9 -24.3,-2.9 M 360.5,403.5 c 0,0.9 0.9,1.9 1.4,2.3 2.6,3.7 5.9,6.9 9.7,10.1 3.7,3.3 7.8,5.9 12.4,7.4 3.3,-0.9 5.9,-2.3 8.8,-4.5 5.5,-3.7 10.1,-8.8 14.3,-13.7 0.4,-0.4 0.9,-0.9 0.9,-1.9 -7.4,-3.3 -15.6,-4.5 -23.9,-4.1 -8,-0.3 -16.2,0.7 -23.6,4.4 m -216.8,49.1 c 8.2,11.4 18.5,21.6 29.9,29.9 10.7,7.8 22.5,13.7 34.9,18.8 13.7,5.5 28.4,9.7 43.2,13.3 32.2,6.9 65.7,9.7 98.4,10.7 9.7,0.4 18.8,0.4 28.4,0.4 5.1,0 9.7,0 14.7,0 8.2,-0.4 16.6,0 24.4,-0.4 9.7,0 19.2,-0.9 28.9,-1.4 31.7,-2.3 63.8,-5.9 94.1,-15.2 13.7,-4.1 27.1,-9.7 39.9,-16.6 11.4,-6.4 22.5,-14.7 31.7,-24.4 4.5,-5.1 9.2,-10.1 12.9,-15.6 -57.4,0 -115.3,0 -172.7,0 -1.9,8.8 -6.9,16.6 -13.7,21.6 -5.5,4.1 -11.9,6.9 -18.8,7.4 -4.1,0.4 -8.2,0 -12.4,-0.9 -1.4,7.4 -5.1,13.7 -10.7,19.2 -3.3,2.6 -6.9,5.5 -11.1,5.9 -3.7,0.4 -7.8,-1.4 -10.7,-3.3 -7.4,-5.1 -12.4,-13.3 -14.3,-22.1 -5.9,1.4 -11.9,1.4 -18,0 -7.4,-1.9 -14.3,-5.9 -18.8,-11.4 -4.1,-4.5 -6.9,-10.7 -8.2,-16.6 -17.5,0 -34.9,0 -52.4,0 -39.6,0.7 -79.7,0.7 -119.6,0.7 m 239,11.9 c -3.7,5.5 -8.2,10.1 -14.3,12.9 -0.9,0.4 -0.4,1.4 -0.4,1.9 1.9,7.4 5.9,13.7 12.4,18 1.9,0.9 3.7,1.9 5.5,1.4 2.6,-0.9 4.5,-2.6 6.4,-4.5 4.1,-4.1 6.9,-9.7 7.8,-15.6 0.4,-0.9 -0.4,-0.9 -0.9,-1.4 -5.5,-2.6 -10.1,-7.4 -13.7,-12.4 -0.6,-0.3 -1.4,-0.3 -2.8,-0.3 M 321.1,532 c -13.3,19.2 -21.1,42.3 -23,66.1 -0.4,9.7 0,18.8 0,28.4 0.4,7.8 0.9,16.1 2.3,23.9 1.4,6.4 3.3,12.9 5.9,18.5 2.6,5.9 7.4,11.4 12.4,15.6 5.1,4.1 10.7,6.9 16.6,8.8 6.9,2.3 13.7,3.7 20.7,4.5 9.7,1.4 19.8,1.9 29.9,1.4 8.8,0 17,-0.4 25.8,-1.4 7.4,-0.9 14.7,-2.3 22.1,-5.1 5.9,-2.3 11.9,-5.5 16.6,-9.7 5.1,-4.1 8.8,-9.7 11.4,-15.6 2.6,-5.9 4.5,-12.4 5.5,-18.8 1.4,-7.8 1.9,-15.6 2.3,-23.5 0.4,-9.7 0.4,-19.8 0,-29.4 -1.9,-22.5 -9.7,-45 -22.5,-63.8 -16.1,0.9 -32.2,1.4 -48.3,1.9 -18,0 -35.8,0 -53.8,-0.4 -7.3,-0.4 -15.6,-0.8 -23.9,-1.4 m 172.2,55.3 c 0,0.4 0.4,1.4 0.9,1.9 3.7,6.4 7.8,12.4 12.9,18 3.7,4.1 7.8,7.8 12.9,10.7 2.6,1.4 5.9,2.3 8.8,0.9 1.9,-0.4 2.6,-2.3 3.7,-4.1 0.9,-3.7 0.4,-7.8 0,-11.4 -1.9,-10.7 -5.1,-20.7 -8.8,-30.3 0,-0.4 -0.4,-0.9 -0.4,-1.4 -10.1,5 -20.3,10.6 -30,15.7 m -249,-5.1 c -3.3,7.4 -6.4,14.7 -8.2,22.5 -0.4,3.3 -0.9,6.4 0,9.7 0.9,2.3 3.3,3.7 5.9,4.1 3.3,0.4 6.4,0.9 9.7,-0.4 5.1,-1.9 8.8,-5.5 12.4,-9.2 5.1,-5.5 9.7,-11.4 13.3,-18 -10.1,-5.5 -19.8,-11.1 -29.9,-16.6 -0.9,2.9 -1.7,5.6 -3.2,7.9 m 48.8,165 c 0.4,2.6 1.4,5.9 3.3,8.2 1.4,2.3 4.1,4.1 6.9,5.1 3.7,0.9 7.8,0.9 11.9,0.4 3.3,-0.4 5.9,-2.3 7.8,-5.1 1.9,-2.6 2.6,-5.5 3.7,-8.8 -11.5,0.2 -22.6,0.2 -33.6,0.2 m 149.7,0 c 0.4,3.7 1.9,6.9 4.1,9.7 2.3,2.6 5.9,3.7 9.2,4.1 3.3,0.4 6.9,0.4 10.1,-0.9 2.3,-0.9 4.5,-2.3 5.9,-4.5 1.9,-2.6 2.6,-5.5 3.7,-8.8 -10.9,0.4 -21.9,0.4 -33,0.4 z"
   id="path33" />
				<path
   class="st5"
   d="m 254.4,269.7 c 6.9,-0.4 13.7,-0.4 20.2,0.9 12.4,2.6 24.4,9.2 33.5,18.5 11.4,11.4 18.5,27.1 19.2,42.7 0,4.5 0,9.7 -0.4,14.3 -2.3,17 -11.9,32.5 -25.8,43.2 -5.9,4.5 -12.9,8.2 -20.2,10.1 -18,5.5 -38.1,3.3 -54.3,-6.4 -10.1,-5.9 -18.5,-14.7 -23.9,-24.4 -6.9,-11.9 -9.7,-25.8 -8.2,-39.1 1.4,-14.3 7.8,-28 17.5,-38.7 11.1,-12.3 26.4,-19.6 42.4,-21.1 m 0.5,20.2 c -8.8,0.9 -17.5,5.1 -24.4,10.7 -9.2,7.8 -15.6,19.8 -16.1,32.2 -0.9,11.4 3.3,23.5 10.7,32.5 7.4,9.2 18.8,15.2 30.3,16.6 10.7,1.4 21.1,-1.4 29.9,-6.9 7.8,-5.1 14.3,-12.9 18,-21.6 4.5,-11.9 4.5,-25.8 -0.9,-37.2 -4.5,-10.1 -13.3,-18.5 -23.5,-23 -7.5,-3.3 -15.7,-4.2 -24,-3.3 z"
   id="path35" />
				<path
   class="st5"
   d="m 502.1,271.2 c 8.2,-0.4 16.6,0 24.4,2.3 11.4,3.3 21.6,9.7 29.9,18.5 9.2,10.1 15.6,23 17.5,36.2 1.9,14.7 -0.9,29.9 -8.2,42.3 -5.9,10.7 -14.7,18.8 -25.4,24.8 -9.7,5.5 -20.7,8.2 -31.7,8.2 -15.2,0.4 -30.8,-5.1 -42.7,-14.7 -12.4,-10.1 -21.1,-25.4 -23.9,-41.3 -0.9,-5.1 -0.9,-9.7 -0.4,-14.7 0.9,-14.3 6.4,-27.6 15.6,-38.7 11,-12.9 27.5,-21.7 44.9,-22.9 m 0.5,18.7 c -5.9,0.9 -11.4,2.3 -16.6,5.5 -10.7,5.9 -18.8,16.1 -22.1,27.6 -2.3,7.4 -2.3,15.6 -0.9,23.5 2.6,11.9 10.7,23 21.1,29.4 11.9,7.4 26.6,8.8 39.9,4.1 11.1,-4.1 20.7,-12.4 25.8,-23 6.4,-12.9 6.4,-28.9 -0.4,-41.7 -5.1,-9.7 -13.7,-17.5 -23.9,-21.6 -7.8,-3.8 -15.6,-4.7 -22.9,-3.8 z"
   id="path37" />
				<path
   class="st6"
   d="m 254.9,289.9 c 8.2,-0.9 16.6,0 24.4,3.3 10.1,4.5 18.8,12.9 23.5,23 5.5,11.4 5.9,25.4 0.9,37.2 -3.7,8.8 -10.1,16.6 -18,21.6 -8.8,5.5 -19.8,8.2 -29.9,6.9 -11.9,-1.4 -23,-7.4 -30.3,-16.6 -7.4,-8.8 -11.4,-20.7 -10.7,-32.5 0.4,-12.4 6.9,-24.4 16.1,-32.2 6.5,-5.5 15.3,-9.2 24,-10.7 z"
   id="path39" />
				<path
   class="st6"
   d="m 502.6,289.9 c 7.4,-0.9 15.2,0 22.5,2.6 10.1,4.1 18.8,11.9 23.9,21.6 6.9,12.9 6.9,28.9 0.4,41.7 -5.1,10.7 -14.7,19.2 -25.8,23 -12.9,4.5 -28,3.3 -39.9,-4.1 -10.7,-6.4 -18.5,-17 -21.1,-29.4 -1.9,-7.8 -1.4,-15.6 0.9,-23.5 3.3,-11.4 11.4,-21.6 22.1,-27.6 5.1,-1.9 11,-3.4 17,-4.3 z"
   id="path41" />
				<path
   class="st7"
   d="m 360.5,403.5 c 7.4,-3.3 15.6,-4.5 23.9,-4.1 8.2,0 16.6,0.9 23.9,4.1 0,0.9 -0.4,1.4 -0.9,1.9 -4.1,5.1 -8.8,10.1 -14.3,13.7 -2.6,1.9 -5.5,3.7 -8.8,4.5 -4.5,-1.4 -8.8,-4.1 -12.4,-7.4 -3.7,-3.3 -6.9,-6.4 -9.7,-10.1 -0.7,-1.3 -1.7,-1.7 -1.7,-2.6 z"
   id="path43" />
				<path
   class="st8"
   d="m 143.7,452.6 c 39.9,0 80,0 119.9,0 17.5,0 34.9,0 52.4,0 1.4,5.9 4.1,11.9 8.2,16.6 5.1,5.5 11.4,9.7 18.8,11.4 5.9,1.4 11.9,1.4 18,0 1.9,8.8 6.9,16.6 14.3,22.1 3.3,2.3 6.9,3.7 10.7,3.3 4.1,-0.4 7.8,-3.3 11.1,-5.9 5.1,-5.1 8.8,-11.9 10.7,-19.2 4.1,0.9 8.2,1.4 12.4,0.9 6.9,-0.4 13.3,-3.3 18.8,-7.4 6.9,-5.1 11.9,-13.3 13.7,-21.6 57.4,0 115.3,0 172.7,0 -3.7,5.5 -8.2,10.7 -12.9,15.6 -9.2,9.7 -20.2,17.5 -31.7,24.4 -12.4,6.9 -26.1,12.4 -39.9,16.6 -30.3,9.2 -62.4,13.3 -94.1,15.2 -9.7,0.4 -19.2,0.9 -28.9,1.4 -8.2,0.4 -16.6,0 -24.4,0.4 -5.1,0 -9.7,0 -14.7,0 -9.7,0 -18.8,0 -28.4,-0.4 -33.2,-0.9 -66.1,-3.7 -98.4,-10.7 -14.7,-3.3 -29.4,-7.4 -43.2,-13.3 -12.4,-5.1 -24.4,-11.1 -34.9,-18.8 -11.4,-9 -21.9,-19 -30.2,-30.6 z"
   id="path45" />
				<path
   class="st9"
   d="m 382.7,464.5 c 0.9,0 2.3,0 3.3,0 3.3,5.1 8.2,9.7 13.7,12.4 0.4,0.4 1.4,0.4 0.9,1.4 -0.9,5.9 -4.1,11.4 -7.8,15.6 -1.9,1.9 -4.1,3.7 -6.4,4.5 -1.9,0.9 -4.1,-0.4 -5.5,-1.4 -6.4,-4.1 -10.7,-10.7 -12.4,-18 0,-0.4 -0.4,-1.9 0.4,-1.9 5.4,-2.4 10.5,-7 13.8,-12.6 z"
   id="path47" />
				<path
   class="st10"
   d="m 321.1,532 c 8.2,0.4 16.1,0.9 24.4,0.9 18,0.4 35.8,0.9 53.8,0.4 16.1,0 32.2,-0.9 48.3,-1.9 13.3,18.8 20.7,41 22.5,63.8 0.9,9.7 0.4,19.8 0,29.4 -0.4,7.8 -0.9,15.6 -2.3,23.5 -1.4,6.4 -2.6,12.9 -5.5,18.8 -2.6,5.9 -6.9,11.4 -11.4,15.6 -5.1,4.1 -10.7,7.4 -16.6,9.7 -6.9,2.6 -14.3,4.1 -22.1,5.1 -8.2,0.9 -17,1.4 -25.8,1.4 -10.1,0 -19.8,-0.4 -29.9,-1.4 -6.9,-0.9 -13.7,-2.3 -20.7,-4.5 -5.9,-2.3 -11.4,-5.1 -16.6,-8.8 -5.5,-4.1 -9.7,-9.7 -12.4,-15.6 -2.6,-5.9 -4.5,-11.9 -5.9,-18.5 -1.4,-7.8 -2.3,-15.6 -2.3,-23.9 -0.4,-9.7 -0.4,-18.8 0,-28.4 1.4,-23.2 9.2,-46.1 22.5,-65.6 z"
   id="path49" />
				<path
   class="st11"
   d="m 493.3,587.3 c 10.1,-5.5 19.8,-11.1 29.9,-16.1 0.4,0.4 0.4,0.9 0.4,1.4 3.7,10.1 7.4,19.8 8.8,30.3 0.4,3.7 0.9,7.8 0,11.4 -0.4,1.9 -1.9,3.3 -3.7,4.1 -2.6,0.9 -5.9,0.4 -8.8,-0.9 -5.1,-2.3 -9.2,-6.4 -12.9,-10.7 -5.1,-5.5 -9.2,-11.4 -12.9,-18 -0.3,-0.1 -0.8,-0.6 -0.8,-1.5 z"
   id="path51" />
				<path
   class="st11"
   d="m 244.3,582.2 c 1.4,-2.3 2.3,-5.1 3.3,-7.4 10.1,5.5 19.8,11.1 29.9,16.6 -3.7,6.4 -8.2,12.4 -13.3,18 -3.7,3.7 -7.8,7.4 -12.4,9.2 -3.3,1.4 -6.4,0.9 -9.7,0.4 -2.3,-0.4 -5.1,-1.9 -5.9,-4.1 -1.4,-3.3 -0.9,-6.4 0,-9.7 1.7,-8.2 4.9,-15.6 8.1,-23 z"
   id="path53" />
				<path
   class="st11"
   d="m 293.1,747.2 c 11.1,0 22.1,0 33.2,0 -0.4,3.3 -1.9,6.4 -3.7,8.8 -1.9,2.6 -4.5,4.1 -7.8,5.1 -3.7,0.9 -7.8,0.9 -11.9,-0.4 -2.6,-0.9 -5.1,-2.6 -6.9,-5.1 -1.5,-2.3 -2.6,-5.2 -2.9,-8.4 z"
   id="path55" />
				<path
   class="st11"
   d="m 442.8,747.2 c 11.1,0 22.1,0 33.2,0 -0.4,3.3 -1.9,6.4 -3.7,8.8 -1.4,2.3 -3.7,3.7 -5.9,4.5 -3.3,0.9 -6.9,1.4 -10.1,0.9 -3.3,-0.4 -6.9,-1.9 -9.2,-4.1 -2.4,-2.8 -3.8,-6.3 -4.3,-10.1 z"
   id="path57" />
				<path
   class="st12"
   d="m 156.1,61.6 h 6.9 c 1.4,0 2.6,0.4 4.1,0.4 13.3,1.4 25.8,5.9 37.7,11.9 16.6,8.8 31.7,19.8 46,32.2 1.9,1.9 4.1,3.7 5.9,5.5 3.7,-1.4 7.4,-3.3 11.1,-4.5 29.5,-11.9 61.2,-18.8 93,-21.1 15.2,-0.9 30.8,-1.4 46,0 34.9,2.3 69.8,11.4 101.1,27.1 0.4,0.4 1.4,0.4 2.3,0.9 9.2,-8.8 18.5,-16.6 28.4,-23.9 C 550,81.9 562.5,74 576.3,69 c 9.2,-3.7 19.2,-5.9 29.4,-6.4 h 6.9 c 2.3,0.4 4.5,0 6.9,0.9 0.4,0 0.9,0.4 0.9,0.9 8.2,8.8 14.3,19.8 18.5,30.8 5.5,15.2 8.2,30.8 9.7,46.9 1.9,30.8 -3.7,62.4 -15.6,91.1 -0.4,1.4 -1.4,2.6 -0.4,3.7 12.4,25.4 20.7,52 24.8,79.5 3.3,21.6 3.7,44.2 1.9,65.7 3.3,0.4 5.9,0 9.2,0 8.2,0 17,0 25.4,0 v 3.3 c -11.4,0 -23.5,0 -34.9,0 -1.4,10.1 -3.3,20.7 -5.9,30.8 10.1,2.3 20.7,4.5 30.8,6.9 0.4,0.9 -0.4,2.3 -0.4,3.3 -10.1,-2.3 -20.2,-4.5 -30.3,-6.9 -0.4,0 -1.4,-0.4 -1.4,0.4 -3.3,9.7 -6.9,18.8 -11.9,27.6 -0.4,0.4 0,0.9 0.4,1.4 5.5,3.7 10.7,7.4 16.1,11.1 0.9,0.4 1.9,1.4 2.6,1.9 -0.4,0.9 -1.4,1.9 -1.9,2.6 -2.3,-1.4 -4.1,-2.6 -5.9,-4.1 -3.7,-2.6 -7.4,-5.1 -11.1,-7.8 -0.9,-0.4 -1.9,-1.4 -2.6,-1.9 -6.4,10.7 -14.3,20.2 -23.5,28.4 -17.5,16.1 -39.1,27.6 -61.6,34.9 -13.7,4.5 -28,8.2 -42.3,11.1 3.3,5.1 -128.5,6.7 -142.2,6.7 -14.7,0 -105.8,-4.7 -103.9,-7.6 -14.3,-2.3 -28.4,-5.9 -42.3,-10.7 -23.5,-7.8 -46,-18.8 -64.3,-35.4 -8.2,-7.4 -15.6,-15.6 -21.6,-24.8 -1.4,-1.9 -1.9,-3.7 -3.3,-5.1 -5.9,4.1 -11.4,7.8 -17,11.9 -1.4,0.9 -2.3,1.9 -3.7,2.6 -0.4,-0.9 -1.4,-1.9 -1.9,-2.6 1.9,-1.9 4.1,-3.3 6.4,-4.5 4.5,-3.3 9.7,-6.4 14.3,-10.1 0.4,-0.4 0,-0.9 0,-1.4 -5.1,-8.2 -8.2,-17.5 -11.4,-26.6 -10.7,2.3 -21.1,4.5 -31.7,6.9 0,-0.9 -0.9,-2.3 -0.4,-3.3 10.1,-2.3 20.7,-4.5 31.3,-6.9 -1.4,-5.5 -2.6,-11.1 -4.1,-16.6 -0.9,-4.5 -1.4,-9.7 -2.3,-14.3 -11.4,0 -23.5,0 -34.9,0 V 381 c 10.7,0 21.1,0 31.3,0 0.9,0 1.9,0 3.3,0 -1.9,-20.2 -1.4,-40.5 0.4,-60.6 3.3,-30.8 11.1,-61.2 23.9,-89.2 0.4,-0.4 0.4,-1.4 0,-1.9 -9.7,-23.9 -14.7,-49.1 -15.2,-74.9 0,-17.5 1.9,-35.4 6.9,-52.4 4.1,-14.3 10.7,-28 21.1,-38.7 0.4,-0.4 0.9,-0.9 1.4,-1.4 1.3,-0.3 3.7,0.1 5.9,-0.3 M 254,269.3 c -16.1,1.4 -31.3,9.2 -42.3,20.7 -10.1,10.7 -16.1,24.4 -17.5,38.7 -1.4,13.3 1.4,27.6 8.2,39.1 5.5,10.1 13.7,18.5 23.9,24.4 16.1,9.7 36.2,11.9 54.3,6.4 7.4,-2.3 14.3,-5.9 20.2,-10.1 13.7,-10.1 23.5,-26.1 25.8,-43.2 0.9,-4.5 0.9,-9.7 0.4,-14.3 -0.9,-16.1 -7.8,-31.7 -19.2,-42.7 -9.2,-9.2 -20.7,-15.6 -33.5,-18.5 -7,-0.9 -13.8,-0.9 -20.3,-0.5 m 247.8,1.4 c -17.5,1.4 -33.9,10.1 -45,23.5 -9.2,10.7 -14.7,24.4 -15.6,38.7 0,5.1 0,10.1 0.4,14.7 2.3,16.1 11.1,30.8 23.9,41.3 11.9,9.7 27.1,15.2 42.7,14.7 11.1,0 22.1,-2.6 31.7,-8.2 10.7,-5.9 19.2,-14.7 25.4,-24.8 7.4,-12.9 10.1,-28 8.2,-42.3 -1.9,-13.7 -7.8,-26.6 -17.5,-36.2 -8.2,-8.8 -18.5,-15.2 -29.9,-18.5 -7.8,-2.9 -16.2,-3.9 -24.3,-2.9 M 360.2,403.1 c 0,0.9 0.9,1.9 1.4,2.3 2.6,3.7 5.9,6.9 9.7,10.1 3.7,3.3 7.8,5.9 12.4,7.4 3.3,-0.9 5.9,-2.3 8.8,-4.5 5.5,-3.7 10.1,-8.8 14.3,-13.7 0.4,-0.4 0.9,-0.9 0.9,-1.9 -7.4,-3.3 -15.6,-4.5 -23.9,-4.1 -8.1,-0.3 -16.2,0.7 -23.6,4.4 m -216.9,49.1 c 8.2,11.4 18.5,21.6 29.9,29.9 10.7,7.8 22.5,13.7 34.9,18.8 13.7,5.5 28.4,9.7 43.2,13.3 32.2,6.9 65.7,9.7 98.4,10.7 9.7,0.4 18.8,0.4 28.4,0.4 5.1,0 9.7,0 14.7,0 8.2,-0.4 16.6,0 24.4,-0.4 9.7,0 19.2,-0.9 28.9,-1.4 31.7,-2.3 63.8,-5.9 94.1,-15.2 13.7,-4.1 27.1,-9.7 39.9,-16.6 11.4,-6.4 22.5,-14.7 31.7,-24.4 4.5,-5.1 9.2,-10.1 12.9,-15.6 -57.4,0 -115.3,0 -172.7,0 -1.9,8.8 -6.9,16.6 -13.7,21.6 -5.5,4.1 -11.9,6.9 -18.8,7.4 -4.1,0.4 -8.2,0 -12.4,-0.9 -1.4,7.4 -5.1,13.7 -10.7,19.2 -3.3,2.6 -6.9,5.5 -11.1,5.9 -3.7,0.4 -7.8,-1.4 -10.7,-3.3 -7.4,-5.1 -12.4,-13.3 -14.3,-22.1 -5.9,1.4 -11.9,1.4 -18,0 -7.4,-1.9 -14.3,-5.9 -18.8,-11.4 -4.1,-4.5 -6.9,-10.7 -8.2,-16.6 -17.5,0 -34.9,0 -52.4,0 -39.7,0.7 -79.6,0.7 -119.6,0.7 m 239,11.8 c -3.7,5.5 -8.2,10.1 -14.3,12.9 -0.9,0.4 -0.4,1.4 -0.4,1.9 1.9,7.4 5.9,13.7 12.4,18 1.9,0.9 3.7,1.9 5.5,1.4 2.6,-0.9 4.5,-2.6 6.4,-4.5 4.1,-4.1 6.9,-9.7 7.8,-15.6 0.4,-0.9 -0.4,-0.9 -0.9,-1.4 -5.5,-2.6 -10.1,-7.4 -13.7,-12.4 -0.6,-0.3 -1.4,-0.3 -2.8,-0.3"
   id="path59" />
			</g>
		</g>
		<g
   class="st2"
   id="g161">
			<g
   id="layer3_2_"
   class="st13">
				<path
   id="path2855_2_"
   class="st14"
   d="M 317.6,319.4 V 586 c 45.6,-18.8 154.4,-77.8 191.1,-176.3 32.8,-88.1 23,-90.3 23,-90.3 -69.8,0 -138.2,0 -214.1,0 z" />
				<path
   id="path2187_2_"
   class="st15"
   d="m 99.1,319.4 18.1,77.1 C 171.2,532.9 318,586.2 318,586.2 h 0.2 L 316,317.5 Z" />
				<path
   id="rect3346_2_"
   class="st16"
   d="m 103.4,112.4 h 210.4 c 1.5,0 2.9,1.8 2.9,3.8 v 199 c 0,2.1 -1.2,3.8 -2.9,3.8 H 103.4 c -1.5,0 -2.9,-1.8 -2.9,-3.8 v -199 c 0.2,-2 1.4,-3.8 2.9,-3.8 z" />
				<path
   id="rect3348_2_"
   class="st17"
   d="m 103.4,112.4 h 210.4 c 1.5,0 2.9,1.8 2.9,3.8 v 199 c 0,2.1 -1.2,3.8 -2.9,3.8 H 103.4 c -1.5,0 -2.9,-1.8 -2.9,-3.8 v -199 c 0.2,-2 1.4,-3.8 2.9,-3.8 z" />
				<path
   id="rect3352_2_"
   class="st17"
   d="M 320.6,111.3 H 531 c 1.5,0 2.9,1.8 2.9,3.8 v 199 c 0,2.1 -1.2,3.8 -2.9,3.8 H 320.6 c -1.5,0 -2.9,-1.8 -2.9,-3.8 v -199 c 0,-2.1 1.3,-3.8 2.9,-3.8 z" />
				<g
   id="g18476_2_"
   transform="matrix(0.51325541,0,0,0.49590944,75.100918,295.14829)"
   class="st2">
					<path
   id="path1932_2_"
   class="st18"
   d="m 365,218.5 c -3,-7.9 -5.6,-16 -3.4,-25.3 l 6.4,3 c -4.7,-7.1 -6.5,-16.7 -4.7,-25 2,1.1 5.8,4.6 9.6,6.6 -4.4,-9.8 -2.1,-19.4 -2.4,-29.2 l -1.4,-6.4 5.1,-0.1 c -7.9,-9.2 -6.3,-23.8 -15,-30.6 l 4.7,-6.2 c 1,-2 -0.3,-3.8 -1,-5.8 -2.4,-5.6 -7.1,-6.9 -11.2,-9.1 l -5.4,2.3 -6.4,6.4 c -11.4,-2.6 -16.3,-2.4 -21.4,-2.4 l -6.4,3.4 -3.4,4.4 -1,4.4 -15,7.2 c -0.5,1.5 -1.5,3.2 0.4,3.8 1.6,0.8 3.3,1.6 4.1,3.6 -0.9,2.1 -1.4,4.1 -1.1,6.2 0.2,2.2 0.4,4.4 2,6.3 17.2,-4.4 11.5,-6.2 18.1,-6.4 3.7,0.1 5.2,0.4 6.8,2.4 l 1,3.8 c -2.9,-0.4 -5.6,-0.1 -8.5,-1.8 -5.2,-0.4 -9.2,2 -13.2,4.4 -16.5,10.3 -50.1,-0.2 -19.9,-14.9 -21.2,-1.4 -33.1,27.4 -6.4,30.2 12,0.9 14.3,-3.1 24.6,-6.6 3.1,0.8 2.2,5.8 3.6,6 0.8,1.9 2.5,2.9 4.2,3.7 5.5,-0.2 9.9,0.3 10.9,2.3 1,1.5 0.3,2.3 -0.4,3 -1.6,2.7 -4.1,4.8 -7.1,6.3 -3.5,0.7 -7.1,0.1 -10.7,-0.1 -6.3,-3.6 -9,-7.4 -11.8,-11 -0.2,4.3 -0.1,9.4 1.5,12 -5.6,-0.1 -10.8,1.3 -15.5,4.4 -9.2,5.5 -18.2,14.2 -26.1,22 -6,2.9 -12,6.6 -18.9,5.5 -12.4,-6.2 -5.9,-12.9 -3.8,-17 -4.5,0.2 -6.4,4.3 -8.2,9.6 -0.3,4.4 -0.2,8.2 2.2,12.3 5.1,4.5 8.5,4.3 11.6,4.9 7.9,-0.3 15.2,-1.6 22.1,-3.4 -4.9,2.9 -6.6,4.4 -7,6.3 17.5,2.7 24.4,-3.5 36.5,-5.4 -2.5,3.6 -6.5,7.5 -6.2,10.8 20.4,1.1 36.2,-8.3 42.8,-10 -2.6,2.9 -5.2,5.7 -2.4,7.2 8.9,0.2 20.1,-7.7 22.4,-9.9 7.2,3.2 15,8.7 24.7,11.9 z" />
					<path
   id="path1934_2_"
   class="st18"
   d="m 321.3,140.2 c -4.3,-0.1 -8.8,-0.2 -14.9,3.2 1.1,1 2.3,2.6 3.6,2.4 h 4.1 c 4.4,-1.3 6.5,-3.3 7.2,-5.6 z" />
					<path
   id="path1936_2_"
   class="st18"
   d="m 316.9,137 -7.2,-0.4 c -7.1,3.7 -14.1,7.4 -22.4,8 -13.3,0.5 -27.7,-7.7 -12,-18.9 -22.7,8.9 -14.4,28.1 9.8,25.3 15.5,-6.5 21.2,-9.3 31.8,-14 z" />
					<path
   id="path1938_2_"
   class="st18"
   d="M 272.4,170.7 C 257.4,159.9 247,147 243,131 c 0.8,-2.4 2.4,-4.4 4.8,-5.8 l 0.2,-3.4 c -2,-1.2 -3.6,-2.9 -4.4,-5.4 -0.9,-3.8 -3.3,-6.9 -5.4,-10.2 -2.6,-2.5 -5.3,-2.4 -7.2,-2.6 0.5,4 0,7.9 -0.8,12 -0.8,3.3 -2,6 -3.6,8 l 4.2,5.8 0.7,2.6 -6,-0.2 c -1.3,-0.9 -1.1,-2 -1.1,-3.2 l 1.2,-4.6 c 0,-2 -1.4,-3.3 -2.6,-4.6 l -3.8,-0.2 c -3.8,-5.7 -9.9,-4.3 -15.6,-4.2 -0.4,0.9 -1.2,1.3 -0.4,3.4 l 5.4,5.4 0.2,8.2 c 1.6,1.6 3.7,3 7.2,3 2.2,4 0.9,4.8 -1.8,4.6 -2.5,-0.4 -2.6,-2.7 -3.6,-4.4 -2.6,-1 -3.8,-1 -4.8,-0.8 l -3.8,4.4 c -3.4,0.4 -5.7,1.1 -7.8,3.2 0.3,2.5 2.4,2.9 4.1,3.8 1.8,0 3.3,0.8 4.7,1.8 0.5,1.4 1.6,2.6 3,3.7 2.9,-0.9 5.6,-1.5 7.8,-1.1 2.1,0.7 2.4,1.6 0.2,3 -4.4,-0.1 -5.6,1.2 -6.8,2.6 0.7,2.6 0.7,4.7 0,6.4 -2.3,4.4 -4.5,6.4 -6.8,9 3.5,0.2 7,0.2 10.2,-0.2 1.6,-0.8 3.3,-1.5 4.6,-3 2.1,0 3.4,0 4.8,0 1.1,-1.4 2.1,-3.2 3.2,-5.6 2,-0.2 3.6,-1.1 6.8,2.6 -0.2,4 -1,7.8 -2.2,11.4 3,0.9 5.4,-1 7.8,-3 1,4.4 0.2,7.4 -0.2,11.2 3.5,-2.2 6,-3 7.2,-2.2 L 245,194 c 9.5,-5.5 17.7,-17.1 27.4,-23.3 z" />
					<path
   id="path1940_2_"
   class="st18"
   d="m 232.7,117.7 c 2.6,-0.9 5.4,-1 8,-0.2 v -2.3 c -1.9,-4 -4.3,-7 -7.5,-9.1 0.4,3.9 0.5,8 -0.5,11.6 z" />
					<path
   id="path1942_2_"
   class="st18"
   d="m 215.6,119.9 c -1.8,2.2 -3.8,2.7 -5.9,3.4 -0.9,-2.3 -2.3,-4.3 -4.5,-5.9 1.9,-0.4 3.7,-0.8 6.2,-0.2 1.4,0.4 3.2,0.4 4.2,2.7 z" />
					<path
   id="path1944_2_"
   class="st18"
   d="m 201.4,140.9 c -0.8,1.3 -1.1,2.4 -0.2,3.4 -1.5,0 -3.2,0.2 -4.7,-1.5 0.9,-1.7 2.8,-1.9 4.9,-1.9 z" />
					<path
   id="path1946_2_"
   class="st18"
   d="m 208.9,163.2 c 1.3,1.4 2.9,2.6 5.2,3.4 -1.5,1 -3,2.1 -4.7,2.2 -1.4,0.5 -3.1,0.1 -4.8,-0.7 2.1,-1.2 3.2,-3 4.3,-4.9 z" />
					<path
   id="path1948_2_"
   class="st18"
   d="m 353.7,219.2 c -3.4,-4.2 -8,-7 -12.7,-9.7 -9.9,8 -21.5,12.1 -33.3,12.7 1.6,-2.1 4.3,-3.8 4.6,-7.2 -11.8,4.9 -25,8.1 -40.1,7.8 0.4,-3.2 2.1,-6.4 3.7,-9.7 -8.5,2.3 -17,4.4 -32.7,3.5 -7.6,5.9 -15.2,11.9 -31.6,12.4 -1.4,-0.3 -0.8,-1.8 -0.3,-3.1 2.1,-1.1 3.4,-3.6 4.9,-5.9 -1.4,-2 -3,-3.8 -5.6,-4.5 -1,-3.3 -3.1,-6.6 -5.7,-9.9 -1.8,-1.1 -3.1,-0.5 -4.8,-0.3 -0.1,3.7 -0.3,7.6 0.5,11.3 -2.3,1.1 -4.2,1.9 -4.9,4.3 1.6,2.3 3.3,4.5 6.2,5.8 0.3,1.5 1,3.3 -0.2,4.3 -2.6,1.3 -5.3,1.5 -7.9,0.3 -0.2,-3.7 2.4,-8.3 -2.7,-10.3 -6.4,-0.9 -12.2,-0.3 -17.9,0.7 -1.2,0 -2.1,0.8 -3.1,1.4 -0.8,0.9 -0.9,1.8 -0.7,2.7 2.9,0.7 5.8,1.2 7.7,3.7 1.1,2.6 0.2,4.1 0,6.5 l 3,1.3 4.1,-0.2 c 3.7,2.1 2,4.2 0.3,6.2 -3.4,-0.8 -5.7,-1.6 -7.9,-2.4 0.4,3.2 -0.2,4.9 -1.4,6.2 -3.8,1.3 -7.8,1.6 -11.6,1.4 0.8,4.2 5.4,6.7 10,9.3 2.9,1.1 4.9,0.9 6.6,0 3.8,-0.2 6.7,0.3 8.2,1.8 0.3,-2.2 0.2,-4.4 1.8,-6.6 1.9,-1 3.3,-0.5 4.5,0.3 0.2,3.6 -2.5,5.5 -4.5,7.9 0.1,2.6 0.4,5.2 3.1,5.8 -1.1,4.1 -1.5,7.9 -0.7,11.3 6.5,-1.1 11.2,-4.7 14.8,-10 2.6,-2 5.6,-3.7 5.5,-7.2 -2.5,-1.2 -5.4,-2.3 -4.5,-4.2 4.2,-4.4 8.8,-5.8 13.6,-4.7 1.2,4.3 -2.1,5.7 -3.4,8.2 2.4,-0.3 4.5,-0.9 5.6,-2.2 3.7,-4.4 7.7,-8.2 12.4,-11 1.4,0.4 2,1.4 1.4,3.1 l -6.6,6.3 c 4.1,1.2 7,-1.2 10.4,-3.2 4.6,-7.2 8.5,-11.6 11.2,-10.8 2.2,4.7 7.8,7.6 14.1,10 l -4,-8.5 c 3.1,-6.7 13.3,-7.6 20,-11.3 3,6.7 8.9,12.1 15.5,17.2 11.8,6.4 31.6,13.7 33.1,18.9 -19.3,0.4 -36.9,-7.2 -55.4,-11 -15,-1.8 -20,3.1 -23.7,5.8 -6.6,9 -6.3,16.8 -9.3,25.2 -2.9,1.8 -5.7,1.5 -8.6,1 -7.2,-4.4 -7,-9.7 -6.3,-15.4 -4.8,1.5 -7.8,7.5 -7.6,15.5 0.4,5.4 3.7,8.7 8.3,10.9 6.7,3.1 13.2,4 18.6,-1.8 4.1,3.2 7.1,7.2 8.9,12.1 -1.1,14.3 -17.1,21.3 -21.3,23.1 -1.4,-2.4 -0.3,-4.8 0,-7.2 -0.1,-2.9 -1,-5.4 -2.4,-7.6 l -6.6,-0.3 c -3.2,-5.7 -8.7,-3 -13.4,-3.1 1.6,2.3 4.1,3.8 4.6,7.2 -0.5,3.4 -2.6,4.3 -4.2,6.2 4.7,4.6 7.2,7.1 8.8,8.9 0.8,3.1 -0.9,2.7 -1.9,3 -2.1,1.5 -5.5,-3.2 -8.2,-4.8 -2.3,-0.2 -4.6,0.8 -6.9,2.6 -8.5,0.5 -10.2,6 -13.2,10.7 4,0.1 8,-0.5 11.1,0.8 3,2.6 5.7,5.3 5.5,7 3,0.3 5.2,-1 6.8,-3.6 3.6,-0.3 4.7,0.4 4.8,1.8 -4.6,2.3 -8.1,4.6 -7.6,7.2 l 3.1,4.5 c -1.2,3.3 -1.1,6.7 -0.7,10 1.1,3.1 1.9,2.9 2.7,3.1 3.7,-5.5 4.9,-6.5 6.9,-8.6 6.5,-1.5 7.5,-6.3 5.5,-12.7 1.6,-3.7 4.6,-3.2 7.6,-2.7 0.3,3.5 -0.2,7.1 -1.5,10.7 1.6,2.1 2.4,2.2 4.7,2.6 -0.5,4.1 -1.2,7.7 0.5,11.4 7.1,-1 6.9,-6.8 9.7,-10.7 2.1,-2.2 2.3,-5.8 2.2,-8.5 l -4.4,-7 c 2.5,-5.5 8,-6.5 14.8,-5.5 -1.6,2.9 -0.4,5.7 -0.3,8.6 3.7,3.3 7.2,7.5 10.7,12.4 0.8,-2.4 2.1,-4.3 1.8,-7.6 -3.1,-3.6 -5.9,-7.2 -5.2,-9.7 0.2,-5.5 3.2,-5.6 5.2,-7.6 -1,3.5 -0.7,7.1 0,10.7 0.1,2.9 1.8,4.9 4.8,6.2 6.4,-1.8 9.8,0.3 13.7,1.8 -0.3,-2.9 -2.6,-5.4 -5.8,-7.6 -5.5,-1.9 -4.2,-5.1 -4.8,-7.9 -0.4,-4 0.5,-4.6 1,-6.6 2.5,2.5 2.6,7 3.7,10.7 6.6,3.6 10,4 13.7,4.8 1.1,-0.9 1.2,-2.2 0.3,-3.7 -2.6,-2 -5.5,-3.1 -7.6,-6.6 -2.5,-3.8 -1.2,-5.6 -0.3,-7.6 5.5,-2 11.3,-3.6 11.8,-7.1 3.4,-4.3 4.7,-9.6 5.2,-15.2 -1.9,-5.8 -4.6,-10 -10.1,-9.1 1,3.6 2.9,7.4 2.1,11 1,5.3 -2.1,6.3 -4.2,8.2 0.3,-2.2 0.3,-4.3 -0.7,-6.2 -4.8,-7.6 -10.7,-14.9 -10,-23.7 2,-4.8 5.8,-5.2 9.7,-5.5 l 21.6,-0.7 c 6.8,-4 12.7,-4.6 18.9,-6.2 -6.8,12.3 -15.3,24.5 -17.1,37.5 0.3,7.1 1.4,13.4 3.4,18.6 3.6,6 2,8.7 2.1,12.4 -3.2,1.5 -8.3,-0.4 -13.1,-1.8 -1.1,4.7 3.7,7 7.9,9.7 7,-0.1 8.7,-1.3 11,-2.4 4.3,-3.7 5.1,-9.1 5.5,-14.8 10.7,1.5 20.9,1 31.5,0.2 -0.4,10.2 -9.4,20.4 -15.5,30.6 -2.1,0.5 -3.8,0.4 -4,-1.5 l 1,-2.4 c 0.4,-1.9 -0.2,-3.3 -1.4,-4.5 -7,-0.5 -14,-1.5 -21.6,0.1 -1.5,1.4 -2.9,2.9 -2.7,4.3 4.3,2.1 7.2,4.2 9.7,6.3 0.4,2 1,3.8 2.1,4.8 l 7.2,1 c 0.8,2 1.2,3.8 0.7,5.8 -3.1,0 -5.8,-1.1 -8.6,-2.1 -1.6,1.9 -3.8,3.7 -1.4,6.2 -3.2,2.2 -4.2,4.1 -4.8,5.8 -1,4.3 -0.7,7.7 0,11 0.3,2.4 1.9,3 3.4,3.4 3.8,-4.5 7.2,-8.2 7.9,-7.9 2.6,-3.1 4.5,-2.1 6.6,-2.4 1.1,-3.4 1.2,-8.2 3.7,-9.3 1.3,0.2 3,-0.2 2.7,3.1 -2.7,2.3 -3.2,4.6 -4.2,6.9 3.7,2.9 6.4,5.7 7.2,8.2 4.7,3.3 9,5.1 12.7,5.5 -1.1,-4.3 -1.4,-8.2 -3.4,-12.7 2.7,-1.4 2.1,-3.4 2.4,-5.2 -0.5,-1.6 -1.1,-3.3 -3.7,-5.5 -1.5,0.5 -1.8,-1.4 -2.1,-3.1 3.4,-2.4 5.1,-1 6.9,0.3 0.9,1.5 1.1,2.9 1,4.2 -1.1,1.6 -0.4,3.2 0.3,4.8 2.4,0.4 5.1,-0.1 6.6,3.1 -0.7,4.5 -0.1,7.6 2.4,7.9 2.2,-1.1 3.6,-3.2 4.5,-6.2 1.4,-5.8 1.9,-12.1 1.4,-18.6 -2.1,-1.9 -4.3,-3.4 -7.6,-2.7 -1.6,-2 -0.8,-3.5 2.1,-4.8 4.5,-0.8 6.3,-3.2 8.6,-5.2 2.2,1.9 5.4,8.3 7.5,7.2 4.2,0.2 4.9,3.7 5.8,4.2 l -0.3,-8.2 c -4.1,-3 -7.2,-6.6 -6.2,-13.1 l 7.6,7.9 c 5.3,0.4 5.3,4.4 6.6,7.6 2.4,-0.9 3.3,-3.4 4.2,-6.2 -3.8,-5.3 -7.4,-10.7 -8.9,-16.5 -1.3,-5.4 1.4,-4.9 2.7,-6.6 1,6.5 3.7,10.9 7.9,13.4 4.7,1.4 9,1.9 12.4,0 5.4,-5.5 10.4,-11.2 10.7,-19.7 -8,5.6 -17.4,19.9 -22,3.4 -0.8,-4.3 0.5,-8 2.1,-11.6 0.4,-5.2 -0.2,-10.7 -1.4,-16.1 3.1,0 5.5,1.9 7.9,3.7 1.1,2.4 1.6,5.4 2.5,8.1 1.2,-3.7 2.6,-7.4 1.6,-12 -3.7,-7.7 -9.6,-11.4 -18.2,-9.7 -11,2.4 -20,6.4 -31.2,9.7 -5.3,-3.7 -3.8,-10.7 -1.5,-18.2 10.8,-1 17.7,-6.3 23.1,-13.1 2.4,-7.7 3.2,-16.1 4.3,-25.8 -2.5,-8.6 -4.2,-17.2 -9.8,-25.8 -5.4,-11.6 -4.8,-18.9 -4.2,-26.1 4,-16.8 11.9,-28.6 20.3,-39.9 3.3,-7 6.7,-14 5.8,-24.8 -4.3,-9.4 -14.6,-24.3 -10.2,-26.5 0.8,-3.8 3.4,-2.5 5.7,-2.4 4.5,0.1 7,3.4 10,5.8 0.7,-4 -3.6,-9.2 -6.7,-14.6 -2.5,-3.7 -6.4,-5.5 -11.2,-6 -7.5,1.3 -8.9,7 -11.3,12.1 -3.5,-2.1 -7.7,-3.2 -13.4,-2.1 -3,-0.1 -4.7,-3.2 -6.9,-5.5 -0.2,5.3 0.8,10.2 2.4,15.2 0.9,3.3 1.8,6.6 5.5,8.2 l 4.2,1.4 c -1.5,2.5 -4.6,4 -3.4,8.2 2.6,3.6 4.7,7.5 5.2,11.6 -0.2,3.6 -1.6,5.9 -3.1,8.2 3.4,0.1 6.8,0.1 8.9,-1.4 2.7,-1.1 3.6,-3.5 4.8,-5.8 -0.3,-5.6 -1.4,-11.2 0,-16.8 3.1,-0.7 4.7,0.8 5.8,3.1 4.8,9.9 2.3,16.3 2.1,23.7 -6.2,15.4 -15.4,30.8 -23.1,46.1 -2.2,6.5 -0.5,12.4 1,18.2 6,11.5 7.2,20.2 8.9,29.2 3.3,8.3 0.9,16.4 0.7,24.4 0,3 -1.2,4.9 -3.4,6.2 -2.9,2.2 -6.2,3.6 -10,4.5 -0.7,-4.3 -0.7,-8.5 -4.5,-12.7 -11.2,-14 -26,-28.2 -24.1,-41.3 -0.4,-5.4 -1.4,-12 0.4,-17.7 z" />
					<path
   id="path1952_2_"
   class="st18"
   d="m 202.7,207.9 c -0.9,2.3 -0.8,4.7 0.7,7 2,1 3.3,0.1 4.8,-0.2 -1.1,-2.5 -2.5,-5.1 -5.5,-6.8 z" />
					<path
   id="path1954_2_"
   class="st18"
   d="m 173.2,224 c 2.6,-1.4 5.3,-2.5 7.9,-1.2 0.1,1.6 0,3.3 -1.8,4.2 -1.7,-2.2 -3.9,-2.7 -6.1,-3 z" />
					<path
   id="path1956_2_"
   class="st18"
   d="m 168.7,250.5 c 2.4,2.1 5.1,4 8.8,3.7 0,-1.4 0.1,-2.9 -2.1,-4.3 0,0.1 -6.7,0.6 -6.7,0.6 z" />
					<path
   id="path1958_2_"
   class="st18"
   d="m 196,267.4 c 0.1,2.9 -1.1,5.1 -1.9,7.4 3.6,-1.5 7,-3.5 9.3,-7.4 -2.4,0.7 -4.8,1.1 -7.4,0 z" />
					<path
   id="path1960_2_"
   class="st18"
   d="m 217.2,317.5 c -0.5,2.3 1.4,4.1 3.1,5.8 l 3.1,-4.3 c -1.3,-1.6 -3.4,-2.2 -6.2,-1.5 z" />
					<path
   id="path1962_2_"
   class="st18"
   d="m 204.5,342.4 c -3.3,0.2 -6.2,1.5 -8.5,4.5 3.4,0 6.3,0.7 8.2,2.4 0.8,-2.1 1.4,-4.3 0.3,-6.9 z" />
					<path
   id="path1964_2_"
   class="st18"
   d="m 217,368.6 c -1.3,3.1 -0.7,6 -0.2,9.1 1.9,-1.9 3.7,-3.6 4.6,-6.9 -1.3,0.3 -2.8,-0.7 -4.4,-2.2 z" />
					<path
   id="path1966_2_"
   class="st18"
   d="m 243.2,369.8 c 0.9,0.7 2.5,0.5 5.4,-0.7 -0.4,3.5 -2.7,6.3 -4.9,8.9 -0.7,-2.7 -2.5,-5.5 -0.5,-8.2 z" />
					<path
   id="path1968_2_"
   class="st18"
   d="m 339.5,368.4 c -4.2,-0.7 -7.5,0.3 -10.7,1.4 4.2,1.4 5.1,2.9 6.7,4.3 2.9,-1.7 3.4,-3.7 4,-5.7 z" />
					<path
   id="path1970_2_"
   class="st18"
   d="m 334.3,397.6 c -1.4,3.8 -1.9,7.5 -1,10.9 2.4,-2 4.4,-4.2 4.9,-7 -0.1,-1.4 -1.8,-2.6 -3.9,-3.9 z" />
					<path
   id="path1972_2_"
   class="st18"
   d="m 359.2,409 c 1.5,-2.1 3.4,-3 5.8,-2.2 1.2,3 2.2,5.8 2.1,8.2 -3.2,-0.8 -5.6,-3.4 -7.9,-6 z" />
					<path
   id="path1974_2_"
   class="st18"
   d="m 379.3,401.1 1.1,-1.5 c 0.7,0 2,-1.4 3.1,-1.8 0.2,3.3 -0.2,6.3 -1.4,8.6 -1,0.3 -1.9,-3.1 -2.8,-5.3 z" />
					<path
   id="path1976_2_"
   class="st18"
   d="m 312.7,112.7 c 1.2,-2.3 10.9,-1.8 10.9,-1.4 2.9,1 3.1,3 3.6,4.8 l 0.3,2.2 -1.2,-1.4 c -1,1 -2.4,1 -3.7,1.2 l -1.6,0.3 c -1.9,-1.4 -2.9,-3.3 -3.6,-5.4 -2.1,0.1 -3.3,-0.1 -4.7,-0.3 z" />
					<path
   id="path9897_2_"
   class="st18"
   d="m 298.6,293.2 c 0.1,9.6 12.3,7 21.9,4.9 -0.7,4.9 1.8,6.2 9.1,3.4 l 8.2,-15.5 c -5.6,1.4 -10.7,1.4 -18.6,5.9 -6.7,1 -13.3,0.5 -20.6,1.3 z" />
				</g>
				<g
   id="g18501_2_"
   transform="matrix(0.51325541,0,0,0.49590944,337.00568,12.608607)"
   class="st2">
					<path
   id="path18503_2_"
   class="st18"
   d="m 223.9,376 c -3,-7.9 -5.6,-16 -3.4,-25.3 l 6.4,3 c -4.7,-7.1 -6.5,-16.7 -4.7,-25 2,1.1 5.8,4.6 9.6,6.6 -4.4,-9.8 -2.1,-19.4 -2.4,-29.2 l -1.4,-6.4 5.1,-0.1 c -7.9,-9.2 -6.3,-23.8 -15,-30.6 l 4.7,-6.2 c 1,-2 -0.3,-3.8 -1,-5.8 -2.4,-5.6 -7.1,-6.9 -11.2,-9.1 l -5.4,2.3 -6.4,6.4 c -11.4,-2.6 -16.3,-2.4 -21.4,-2.4 l -6.4,3.4 -3.4,4.4 -1,4.4 -15,7.2 c -0.5,1.5 -1.5,3.2 0.4,3.8 1.6,0.8 3.3,1.6 4.1,3.6 -0.9,2.1 -1.4,4.1 -1.1,6.2 0.2,2.2 0.4,4.4 2,6.3 17.2,-4.4 11.5,-6.2 18.1,-6.4 3.7,0.1 5.2,0.4 6.8,2.4 l 1,3.8 c -2.9,-0.4 -5.6,-0.1 -8.5,-1.8 -5.2,-0.4 -9.2,2 -13.2,4.4 -16.5,10.3 -50.1,-0.2 -19.9,-14.9 -21.2,-1.4 -33.1,27.4 -6.4,30.2 12,0.9 14.3,-3.1 24.6,-6.6 3.1,0.8 2.2,5.8 3.6,6 0.8,1.9 2.5,2.9 4.2,3.7 5.5,-0.2 9.9,0.3 10.9,2.3 1,1.5 0.3,2.3 -0.4,3 -1.6,2.7 -4.1,4.8 -7.1,6.3 -3.5,0.7 -7.1,0.1 -10.7,-0.1 -6.3,-3.6 -9,-7.4 -11.8,-11 -0.2,4.3 -0.1,9.4 1.5,12 -5.6,-0.1 -10.8,1.3 -15.5,4.4 -9.2,5.5 -18.2,14.2 -26.1,22 -6,2.9 -12,6.6 -18.9,5.5 -12.4,-6.2 -5.9,-12.9 -3.8,-17 -4.5,0.2 -6.4,4.3 -8.2,9.6 -0.3,4.4 -0.2,8.2 2.2,12.3 5.1,4.5 8.5,4.3 11.6,4.9 7.9,-0.3 15.2,-1.6 22.1,-3.4 -4.9,2.9 -6.6,4.4 -7,6.3 17.5,2.7 24.4,-3.5 36.5,-5.4 -2.5,3.6 -6.5,7.5 -6.2,10.8 20.4,1.1 36.2,-8.3 42.8,-10 -2.6,2.9 -5.2,5.7 -2.4,7.2 8.9,0.2 20.1,-7.7 22.4,-9.9 7.3,3.2 15.1,8.8 24.7,11.9 z" />
					<path
   id="path18505_2_"
   class="st18"
   d="m 180.2,297.7 c -4.3,-0.1 -8.8,-0.2 -14.9,3.2 1.1,1 2.3,2.6 3.6,2.4 h 4.1 c 4.5,-1.4 6.6,-3.3 7.2,-5.6 z" />
					<path
   id="path18507_2_"
   class="st18"
   d="m 175.9,294.6 -7.2,-0.4 c -7.1,3.7 -14.1,7.4 -22.4,8 -13.3,0.5 -27.7,-7.7 -12,-18.9 -22.7,8.9 -14.4,28.1 9.8,25.3 15.5,-6.7 21.1,-9.4 31.8,-14 z" />
					<path
   id="path18509_2_"
   class="st18"
   d="m 131.4,328.2 c -15,-10.8 -25.4,-23.7 -29.4,-39.7 0.8,-2.4 2.4,-4.4 4.8,-5.8 l 0.2,-3.4 c -2,-1.2 -3.6,-2.9 -4.4,-5.4 -0.9,-3.8 -3.3,-6.9 -5.4,-10.2 -2.6,-2.5 -5.3,-2.4 -7.2,-2.6 0.5,4 0,7.9 -0.8,12 -0.8,3.3 -2,6 -3.6,8 l 4.2,5.8 0.7,2.6 -6,-0.2 c -1.3,-0.9 -1.1,-2 -1.1,-3.2 l 1.2,-4.6 c 0,-2 -1.4,-3.3 -2.6,-4.6 l -3.8,-0.2 c -3.8,-5.7 -9.9,-4.3 -15.6,-4.2 -0.4,0.9 -1.2,1.3 -0.4,3.4 l 5.4,5.4 0.2,8.2 c 1.6,1.6 3.7,3 7.2,3 2.2,4 0.9,4.8 -1.8,4.6 -2.5,-0.4 -2.6,-2.7 -3.6,-4.4 -2.6,-1 -3.8,-1 -4.8,-0.8 l -3.8,4.4 c -3.4,0.4 -5.7,1.1 -7.8,3.2 0.3,2.5 2.4,2.9 4.1,3.8 1.8,0 3.3,0.8 4.7,1.8 0.5,1.4 1.6,2.6 3,3.7 2.9,-0.9 5.6,-1.5 7.8,-1.1 2.1,0.7 2.4,1.6 0.2,3 -4.4,-0.1 -5.6,1.2 -6.8,2.6 0.7,2.6 0.7,4.7 0,6.4 -2.3,4.4 -4.5,6.4 -6.8,9 3.5,0.2 7,0.2 10.2,-0.2 1.6,-0.8 3.3,-1.5 4.6,-3 2.1,0 3.4,0 4.8,0 1.1,-1.4 2.1,-3.2 3.2,-5.6 2,-0.2 3.6,-1.1 6.8,2.6 -0.2,4 -1,7.8 -2.2,11.4 3,0.9 5.4,-1 7.8,-3 1,4.4 0.2,7.4 -0.2,11.2 3.5,-2.2 6,-3 7.2,-2.2 l 2.6,11.4 c 9.3,-5.2 17.5,-17 27.2,-23.1 z" />
					<path
   id="path18511_2_"
   class="st18"
   d="m 91.7,275.1 c 2.6,-0.9 5.4,-1 8,-0.2 v -2.3 c -1.9,-4 -4.3,-7 -7.5,-9.1 0.3,4.1 0.5,8 -0.5,11.6 z" />
					<path
   id="path18513_2_"
   class="st18"
   d="m 74.5,277.3 c -1.8,2.2 -3.8,2.7 -5.9,3.4 -0.9,-2.3 -2.3,-4.3 -4.5,-5.9 1.9,-0.4 3.7,-0.8 6.2,-0.2 1.5,0.5 3.3,0.4 4.2,2.7 z" />
					<path
   id="path18515_2_"
   class="st18"
   d="m 60.4,298.3 c -0.8,1.3 -1.1,2.4 -0.2,3.4 -1.5,0 -3.2,0.2 -4.7,-1.5 0.7,-1.7 2.8,-1.9 4.9,-1.9 z" />
					<path
   id="path18517_2_"
   class="st18"
   d="m 67.9,320.7 c 1.3,1.4 2.9,2.6 5.2,3.4 -1.5,1 -3,2.1 -4.7,2.2 -1.4,0.5 -3.1,0.1 -4.8,-0.7 2.1,-1.1 3.2,-3 4.3,-4.9 z" />
					<path
   id="path18519_2_"
   class="st18"
   d="m 212.7,376.7 c -3.4,-4.2 -8,-7 -12.7,-9.7 -9.9,8 -21.5,12.1 -33.3,12.7 1.6,-2.1 4.3,-3.8 4.6,-7.2 -11.8,4.9 -25,8.1 -40.1,7.8 0.4,-3.2 2.1,-6.4 3.7,-9.7 -8.5,2.3 -17,4.4 -32.7,3.5 -7.6,5.9 -15.2,11.9 -31.6,12.4 -1.4,-0.3 -0.8,-1.8 -0.3,-3.1 2.1,-1.1 3.4,-3.6 4.9,-5.9 -1.4,-2 -3,-3.8 -5.6,-4.5 -1,-3.3 -3.1,-6.6 -5.7,-9.9 -1.8,-1.1 -3.1,-0.5 -4.8,-0.3 -0.1,3.7 -0.3,7.6 0.5,11.3 -2.3,1.1 -4.2,1.9 -4.9,4.3 1.6,2.3 3.3,4.5 6.2,5.8 0.3,1.5 1,3.3 -0.2,4.3 -2.6,1.3 -5.3,1.5 -7.9,0.3 -0.2,-3.7 2.4,-8.3 -2.7,-10.3 -6.4,-0.9 -12.2,-0.3 -17.9,0.7 -1.2,0 -2.1,0.8 -3.1,1.4 -0.8,0.9 -0.9,1.8 -0.7,2.7 2.9,0.7 5.8,1.2 7.7,3.7 1.1,2.6 0.2,4.1 0,6.5 l 3,1.3 4.1,-0.2 c 3.7,2.1 2,4.2 0.3,6.2 -3.4,-0.8 -5.7,-1.6 -7.9,-2.4 0.4,3.2 -0.2,4.9 -1.4,6.2 -3.8,1.3 -7.8,1.6 -11.6,1.4 0.8,4.2 5.4,6.7 10,9.3 2.9,1.1 4.9,0.9 6.6,0 3.8,-0.2 6.7,0.3 8.2,1.8 0.3,-2.2 0.2,-4.4 1.8,-6.6 1.9,-1 3.3,-0.5 4.5,0.3 0.2,3.6 -2.5,5.5 -4.5,7.9 0.1,2.6 0.4,5.2 3.1,5.8 -1.1,4.1 -1.5,7.9 -0.7,11.3 6.5,-1.1 11.2,-4.7 14.8,-10 2.6,-2 5.6,-3.7 5.5,-7.2 -2.5,-1.2 -5.4,-2.3 -4.5,-4.2 4.2,-4.4 8.8,-5.8 13.6,-4.7 1.2,4.3 -2.1,5.7 -3.4,8.2 2.4,-0.3 4.5,-0.9 5.6,-2.2 3.7,-4.4 7.7,-8.2 12.4,-11 1.4,0.4 2,1.4 1.4,3.1 l -6.6,6.3 c 4.1,1.2 7,-1.2 10.4,-3.2 4.6,-7.2 8.5,-11.6 11.2,-10.8 2.2,4.7 7.8,7.6 14.1,10 l -4,-8.5 c 3.1,-6.7 13.3,-7.6 20,-11.3 3,6.7 8.9,12.1 15.5,17.2 11.8,6.4 31.6,13.7 33.1,18.9 -19.3,0.4 -36.9,-7.2 -55.4,-11 -15,-1.8 -20,3.1 -23.7,5.8 -6.6,9 -6.3,16.8 -9.3,25.2 -2.9,1.8 -5.7,1.5 -8.6,1 -7.2,-4.4 -7,-9.7 -6.3,-15.4 -4.8,1.5 -7.8,7.5 -7.6,15.5 0.4,5.4 3.7,8.7 8.3,10.9 6.7,3.1 13.2,4 18.6,-1.8 4.1,3.2 7.1,7.2 8.9,12.1 -1.1,14.3 -17.1,21.3 -21.3,23.1 -1.4,-2.4 -0.3,-4.8 0,-7.2 -0.1,-2.9 -1,-5.4 -2.4,-7.6 l -6.6,-0.3 c -3.2,-5.7 -8.7,-3 -13.4,-3.1 1.6,2.3 4.1,3.8 4.6,7.2 -0.5,3.4 -2.6,4.3 -4.2,6.2 4.7,4.6 7.2,7.1 8.8,8.9 0.8,3.1 -0.9,2.7 -1.9,3 -2.1,1.5 -5.5,-3.2 -8.2,-4.8 -2.3,-0.2 -4.6,0.8 -6.9,2.6 -8.5,0.5 -10.2,6 -13.2,10.7 4,0.1 8,-0.5 11.1,0.8 3,2.6 5.7,5.3 5.5,7 3,0.3 5.2,-1 6.8,-3.6 3.6,-0.3 4.7,0.4 4.8,1.8 -4.6,2.3 -8.1,4.6 -7.6,7.2 l 3.1,4.5 c -1.2,3.3 -1.1,6.7 -0.7,10 1.1,3.1 1.9,2.9 2.7,3.1 3.7,-5.5 4.9,-6.5 6.9,-8.6 6.5,-1.5 7.5,-6.3 5.5,-12.7 1.6,-3.7 4.6,-3.2 7.6,-2.7 0.3,3.5 -0.2,7.1 -1.5,10.7 1.6,2.1 2.4,2.2 4.7,2.6 -0.5,4.1 -1.2,7.7 0.5,11.4 7.1,-1 6.9,-6.8 9.7,-10.7 2.1,-2.2 2.3,-5.8 2.2,-8.5 l -4.4,-7 c 2.5,-5.5 8,-6.5 14.8,-5.5 -1.6,2.9 -0.4,5.7 -0.3,8.6 3.7,3.3 7.2,7.5 10.7,12.4 0.8,-2.4 2.1,-4.3 1.8,-7.6 -3.1,-3.6 -5.9,-7.2 -5.2,-9.7 0.2,-5.5 3.2,-5.6 5.2,-7.6 -1,3.5 -0.7,7.1 0,10.7 0.1,2.9 1.8,4.9 4.8,6.2 6.4,-1.8 9.8,0.3 13.7,1.8 -0.3,-2.9 -2.6,-5.4 -5.8,-7.6 -5.5,-1.9 -4.2,-5.1 -4.8,-7.9 -0.4,-4 0.5,-4.6 1,-6.6 2.5,2.5 2.6,7 3.7,10.7 6.6,3.6 10,4 13.7,4.8 1.1,-0.9 1.2,-2.2 0.3,-3.7 -2.6,-2 -5.5,-3.1 -7.6,-6.6 -2.5,-3.8 -1.2,-5.6 -0.3,-7.6 5.5,-2 11.3,-3.6 11.8,-7.1 3.4,-4.3 4.7,-9.6 5.2,-15.2 -1.9,-5.8 -4.6,-10 -10.1,-9.1 1,3.6 2.9,7.4 2.1,11 1,5.3 -2.1,6.3 -4.2,8.2 0.3,-2.2 0.3,-4.3 -0.7,-6.2 -4.8,-7.6 -10.7,-14.9 -10,-23.7 2,-4.8 5.8,-5.2 9.7,-5.5 l 21.6,-0.7 c 6.8,-4 12.7,-4.6 18.9,-6.2 -6.8,12.3 -15.3,24.5 -17.1,37.5 0.3,7.1 1.4,13.4 3.4,18.6 3.6,6 2,8.7 2.1,12.4 -3.2,1.5 -8.3,-0.4 -13.1,-1.8 -1.1,4.7 3.7,7 7.9,9.7 7,-0.1 8.7,-1.3 11,-2.4 4.3,-3.7 5.1,-9.1 5.5,-14.8 10.7,1.5 20.9,1 31.5,0.2 -0.4,10.2 -9.4,20.4 -15.5,30.6 -2.1,0.5 -3.8,0.4 -4,-1.5 l 1,-2.4 c 0.4,-1.9 -0.2,-3.3 -1.4,-4.5 -7,-0.5 -14,-1.5 -21.6,0.1 -1.5,1.4 -2.9,2.9 -2.7,4.3 4.3,2.1 7.2,4.2 9.7,6.3 0.4,2 1,3.8 2.1,4.8 l 7.2,1 c 0.8,2 1.2,3.8 0.7,5.8 -3.1,0 -5.8,-1.1 -8.6,-2.1 -1.6,1.9 -3.8,3.7 -1.4,6.2 -3.2,2.2 -4.2,4.1 -4.8,5.8 -1,4.3 -0.7,7.7 0,11 0.3,2.4 1.9,3 3.4,3.4 3.8,-4.5 7.2,-8.2 7.9,-7.9 2.6,-3.1 4.5,-2.1 6.6,-2.4 1.1,-3.4 1.2,-8.2 3.7,-9.3 1.3,0.2 3,-0.2 2.7,3.1 -2.7,2.3 -3.2,4.6 -4.2,6.9 3.7,2.9 6.4,5.7 7.2,8.2 4.7,3.3 9,5.1 12.7,5.5 -1.1,-4.3 -1.4,-8.2 -3.4,-12.7 2.7,-1.4 2.1,-3.4 2.4,-5.2 -0.5,-1.6 -1.1,-3.3 -3.7,-5.5 -1.5,0.5 -1.8,-1.4 -2.1,-3.1 3.4,-2.4 5.1,-1 6.9,0.3 0.9,1.5 1.1,2.9 1,4.2 -1.1,1.6 -0.4,3.2 0.3,4.8 2.4,0.4 5.1,-0.1 6.6,3.1 -0.7,4.5 -0.1,7.6 2.4,7.9 2.2,-1.1 3.6,-3.2 4.5,-6.2 1.4,-5.8 1.9,-12.1 1.4,-18.6 -2.1,-1.9 -4.3,-3.4 -7.6,-2.7 -1.6,-2 -0.8,-3.5 2.1,-4.8 4.5,-0.8 6.3,-3.2 8.6,-5.2 2.2,1.9 5.4,8.3 7.5,7.2 4.2,0.2 4.9,3.7 5.8,4.2 l -0.3,-8.2 c -4.1,-3 -7.2,-6.6 -6.2,-13.1 l 7.6,7.9 c 5.3,0.4 5.3,4.4 6.6,7.6 2.4,-0.9 3.3,-3.4 4.2,-6.2 -3.8,-5.3 -7.4,-10.7 -8.9,-16.5 -1.3,-5.4 1.4,-4.9 2.7,-6.6 1,6.5 3.7,10.9 7.9,13.4 4.7,1.4 9,1.9 12.4,0 5.4,-5.5 10.4,-11.2 10.7,-19.7 -8,5.6 -17.4,19.9 -22,3.4 -0.8,-4.3 0.5,-8 2.1,-11.6 0.4,-5.2 -0.2,-10.7 -1.4,-16.1 3.1,0 5.5,1.9 7.9,3.7 1.1,2.4 1.6,5.4 2.5,8.1 1.2,-3.7 2.6,-7.4 1.6,-12 -3.7,-7.7 -9.6,-11.4 -18.2,-9.7 -11,2.4 -20,6.4 -31.2,9.7 -5.3,-3.7 -3.8,-10.7 -1.5,-18.2 10.8,-1 17.7,-6.3 23.1,-13.1 2.4,-7.7 3.2,-16.1 4.3,-25.8 -2.5,-8.6 -4.2,-17.2 -9.8,-25.8 -5.4,-11.6 -4.8,-18.9 -4.2,-26.1 4,-16.8 11.9,-28.6 20.3,-39.9 3.3,-7 6.7,-14 5.8,-24.8 -4.3,-9.4 -14.6,-24.3 -10.2,-26.5 0.8,-3.8 3.4,-2.5 5.7,-2.4 4.5,0.1 7,3.4 10,5.8 0.7,-4 -3.6,-9.2 -6.7,-14.6 -2.5,-3.7 -6.4,-5.5 -11.2,-6 -7.5,1.3 -8.9,7 -11.3,12.1 -3.5,-2.1 -7.7,-3.2 -13.4,-2.1 -3,-0.1 -4.7,-3.2 -6.9,-5.5 -0.2,5.3 0.8,10.2 2.4,15.2 0.9,3.3 1.8,6.6 5.5,8.2 l 4.2,1.4 c -1.5,2.5 -4.6,4 -3.4,8.2 2.6,3.6 4.7,7.5 5.2,11.6 -0.2,3.6 -1.6,5.9 -3.1,8.2 3.4,0.1 6.8,0.1 8.9,-1.4 2.7,-1.1 3.6,-3.5 4.8,-5.8 -0.3,-5.6 -1.4,-11.2 0,-16.8 3.1,-0.7 4.7,0.8 5.8,3.1 4.8,9.9 2.3,16.3 2.1,23.7 -6.2,15.4 -15.4,30.8 -23.1,46.1 -2.2,6.5 -0.5,12.4 1,18.2 6,11.5 7.2,20.2 8.9,29.2 3.3,8.3 0.9,16.4 0.7,24.4 0,3 -1.2,4.9 -3.4,6.2 -2.9,2.2 -6.2,3.6 -10,4.5 -0.7,-4.3 -0.7,-8.5 -4.5,-12.7 -11.2,-14 -26,-28.2 -24.1,-41.3 -0.4,-5.4 -1.4,-12.1 0.4,-17.7 z" />
					<path
   id="path18521_2_"
   class="st18"
   d="m 61.7,365.3 c -0.9,2.3 -0.8,4.7 0.7,7 2,1 3.3,0.1 4.8,-0.2 -1.1,-2.5 -2.5,-5 -5.5,-6.8 z" />
					<path
   id="path18523_2_"
   class="st18"
   d="m 32.2,381.6 c 2.6,-1.4 5.3,-2.5 7.9,-1.2 0.1,1.6 0,3.3 -1.8,4.2 -1.7,-2.3 -3.9,-2.7 -6.1,-3 z" />
					<path
   id="path18525_2_"
   class="st18"
   d="m 27.7,408.1 c 2.4,2.1 5.1,4 8.8,3.7 0,-1.4 0.1,-2.9 -2.1,-4.3 z" />
					<path
   id="path18527_2_"
   class="st18"
   d="m 55,424.9 c 0.1,2.9 -1.1,5.1 -1.9,7.4 3.6,-1.5 7,-3.5 9.3,-7.4 -2.4,0.7 -5,1.1 -7.4,0 z" />
					<path
   id="path18529_2_"
   class="st18"
   d="m 76.2,474.9 c -0.5,2.3 1.4,4.1 3.1,5.8 l 3.1,-4.3 C 81,474.8 79,474.3 76.2,474.9 Z" />
					<path
   id="path18531_2_"
   class="st18"
   d="m 63.5,499.9 c -3.2,0.2 -6.2,1.5 -8.5,4.5 3.4,0 6.3,0.7 8.2,2.4 0.8,-2.2 1.4,-4.3 0.3,-6.9 z" />
					<path
   id="path18533_2_"
   class="st18"
   d="m 76,526 c -1.3,3.1 -0.7,6 -0.2,9.1 1.9,-1.9 3.7,-3.6 4.6,-6.9 -1.4,0.3 -2.9,-0.6 -4.4,-2.2 z" />
					<path
   id="path18535_2_"
   class="st18"
   d="m 102.2,527.2 c 0.9,0.7 2.5,0.5 5.4,-0.7 -0.4,3.5 -2.7,6.3 -4.9,8.9 -0.7,-2.7 -2.5,-5.4 -0.5,-8.2 z" />
					<path
   id="path18537_2_"
   class="st18"
   d="m 198.5,525.8 c -4.2,-0.7 -7.5,0.3 -10.7,1.4 4.2,1.4 5.1,2.9 6.7,4.3 2.9,-1.5 3.4,-3.6 4,-5.7 z" />
					<path
   id="path18539_2_"
   class="st18"
   d="m 193.3,555.1 c -1.4,3.8 -1.9,7.5 -1,10.9 2.4,-2 4.4,-4.2 4.9,-7 -0.1,-1.3 -1.8,-2.7 -3.9,-3.9 z" />
					<path
   id="path18541_2_"
   class="st18"
   d="m 218.1,566.4 c 1.5,-2.1 3.4,-3 5.8,-2.2 1.2,3 2.2,5.8 2.1,8.2 -3.2,-0.8 -5.5,-3.3 -7.9,-6 z" />
					<path
   id="path18543_2_"
   class="st18"
   d="m 238.2,558.5 1.1,-1.5 c 0.7,0 2,-1.4 3.1,-1.8 0.2,3.3 -0.2,6.3 -1.4,8.6 -0.9,0.4 -1.9,-3.1 -2.8,-5.3 z" />
					<path
   id="path18545_2_"
   class="st18"
   d="m 171.7,270.2 c 1.2,-2.3 10.9,-1.8 10.9,-1.4 2.9,1 3.1,3 3.6,4.8 l 0.3,2.2 -1.2,-1.4 c -1,1 -2.4,1 -3.7,1.2 l -1.5,0.2 c -1.9,-1.4 -2.9,-3.3 -3.6,-5.4 -2.2,0.1 -3.4,0 -4.8,-0.2 z" />
					<path
   id="path18547_2_"
   class="st18"
   d="m 157.6,450.7 c 0.1,9.6 12.3,7 21.9,4.9 -0.7,4.9 1.8,6.2 9.1,3.4 l 8.2,-15.5 c -5.6,1.4 -10.7,1.4 -18.6,5.9 -6.8,1.1 -13.4,0.5 -20.6,1.3 z" />
				</g>
				<g
   id="g130">
					<path
   d="m 309.4,447.8 v -5.3 h -9.9 v 5.3 h -14.9 v 0 c 1.8,-2.6 2.9,-5.7 2.9,-9.1 v -25.5 c 0,-11.5 -3.4,-20.7 -8.2,-27.9 -9.4,-14.2 -25.6,-22.4 -42.5,-22.4 h -33.4 c -21.3,0 -36.9,4.3 -36.9,40.6 0,16.5 5.6,28 11.9,36 4.3,-3.4 9.7,-5.5 15.7,-5.5 12.4,0 22.7,9 24.2,20.7 h 5.4 v 0 H 314 v -6.9 z M 235.7,391 c 0,-2.7 2.2,-4.9 4.9,-4.9 h 17.1 c 2.7,0 4.9,2.2 4.9,4.9 v 46.5 c 0,2.7 -2.2,4.9 -4.9,4.9 h -17.1 c -2.7,0 -4.9,-2.2 -4.9,-4.9 z m -16.5,13.1 h -26.6 v -14.2 h 26.6 z"
   id="path118" />
					<path
   d="m 211.9,457.5 c 0,-9.7 -8.1,-17.5 -18.1,-17.5 -10,0 -18.1,7.8 -18.1,17.5 0,9.7 8.1,17.5 18.1,17.5 10,0 18.1,-7.8 18.1,-17.5 z m -26.4,0 c 0,-4.5 3.7,-8 8.3,-8 4.6,0 8.3,3.6 8.3,8 0,4.5 -3.7,8 -8.3,8 -4.6,0.1 -8.3,-3.5 -8.3,-8 z"
   id="path120" />
					<path
   class="st19"
   d="m 235.8,390.6 c 0,-2.7 2.2,-4.9 4.9,-4.9 h 17.1 c 2.7,0 4.9,2.2 4.9,4.9 V 437 c 0,2.7 -2.2,4.9 -4.9,4.9 h -17.1 c -2.7,0 -4.9,-2.2 -4.9,-4.9 z"
   id="path122" />
					<rect
   x="192.89999"
   y="390.10001"
   class="st19"
   width="26.6"
   height="14.2"
   id="rect124" />
					<path
   class="st19"
   d="m 185.2,457.5 c 0,-4.5 3.7,-8 8.3,-8 4.6,0 8.3,3.6 8.3,8 0,4.5 -3.7,8 -8.3,8 -4.5,0 -8.3,-3.6 -8.3,-8 z"
   id="path126" />
					<path
   d="m 242.5,416.5 c 1.1,0 2.1,-1 2.1,-2.1 0,-1.1 -1,-2.1 -2.1,-2.1 -1.1,0 -2.1,0.9 -2.1,2.1 0,1.1 0.9,2.1 2.1,2.1 z"
   id="path128" />
				</g>
				<g
   class="st2"
   id="g158">
					<path
   class="st20"
   d="m 159,325.6 h 1.6 c 0.3,0 0.7,0.1 1,0.1 3.2,0.3 6.2,1.4 9,2.9 4,2.1 7.6,4.7 11,7.7 0.4,0.4 1,0.9 1.4,1.3 0.9,-0.3 1.8,-0.8 2.6,-1.1 7,-2.9 14.6,-4.5 22.2,-5.1 3.6,-0.2 7.4,-0.3 11,0 8.3,0.5 16.7,2.7 24.2,6.5 0.1,0.1 0.3,0.1 0.5,0.2 2.2,-2.1 4.4,-4 6.8,-5.7 2.7,-2 5.7,-3.8 9,-5.1 2.2,-0.9 4.6,-1.4 7,-1.5 h 1.6 c 0.5,0.1 1.1,0 1.6,0.2 0.1,0 0.2,0.1 0.2,0.2 2,2.1 3.4,4.7 4.4,7.4 1.3,3.6 2,7.4 2.3,11.2 0.4,7.4 -0.9,14.9 -3.7,21.7 -0.1,0.3 -0.3,0.7 -0.1,0.9 3,6 4.9,12.4 5.9,19 0.8,5.2 0.9,10.5 0.4,15.7 0.8,0.1 1.4,0 2.2,0 2,0 4.1,0 6,0 v 0.8 c -2.7,0 -5.6,0 -8.3,0 -0.3,2.4 -0.8,4.9 -1.4,7.4 2.4,0.5 4.9,1.1 7.4,1.6 0.1,0.2 -0.1,0.5 -0.1,0.8 -2.4,-0.5 -4.8,-1.1 -7.2,-1.6 -0.1,0 -0.3,-0.1 -0.3,0.1 -0.8,2.3 -1.6,4.5 -2.9,6.6 -0.1,0.1 0,0.2 0.1,0.3 1.3,0.9 2.5,1.8 3.8,2.6 0.2,0.1 0.4,0.3 0.7,0.4 -0.1,0.2 -0.3,0.4 -0.4,0.7 -0.5,-0.3 -1,-0.7 -1.4,-1 -0.9,-0.7 -1.8,-1.2 -2.6,-1.9 -0.2,-0.1 -0.4,-0.3 -0.7,-0.4 -1.5,2.5 -3.4,4.8 -5.6,6.8 -4.2,3.8 -9.3,6.6 -14.7,8.3 -3.3,1.1 -6.7,2 -10.1,2.6 0.8,1.2 1.4,2.4 2.1,3.7 0.8,1.5 1.4,3.2 2.1,4.8 0.5,1.3 1.1,2.7 1.5,4.1 0.5,1.6 1.1,3.4 1.4,5.2 0.2,1 0.3,2.1 0.2,3.1 -0.1,0.7 -0.2,1.2 -0.5,1.8 -0.3,0.5 -0.9,1.1 -1.4,1.3 -0.9,0.3 -2,0.3 -3,0 -1.2,-0.4 -2.3,-1.2 -3.3,-2.2 -0.3,-0.2 -0.5,-0.7 -0.9,-0.9 0,4.6 -0.1,9.2 -1,13.7 -0.5,2.7 -1.4,5.4 -3,7.7 -0.2,0.3 -0.4,0.7 -0.8,1 0.2,1 0.3,2 0.3,3 0,1.8 0,3.5 -0.1,5.2 -0.1,1.3 -0.3,2.7 -1,4 -0.4,0.9 -1.2,1.6 -2.2,2.1 -1,0.4 -2.1,0.5 -3.1,0.5 -1.3,0 -2.6,-0.4 -3.5,-1.3 -1,-0.9 -1.4,-2.2 -1.8,-3.5 -0.2,-1.2 -0.3,-2.4 -0.3,-3.6 -0.7,0.1 -1.3,0.2 -1.9,0.3 -3.3,0.5 -6.7,0.7 -10,0.7 -3.5,0 -7,-0.2 -10.4,-0.8 -0.4,0 -0.9,-0.2 -1.3,-0.2 -0.1,1.8 -0.1,3.5 -0.8,5.2 -0.4,1.1 -1.2,2.2 -2.3,2.7 -1.2,0.7 -2.7,0.8 -4.1,0.5 -1.3,-0.2 -2.6,-0.9 -3.4,-2 -0.9,-1.3 -1.2,-3 -1.3,-4.5 -0.1,-1.1 -0.1,-2.3 -0.1,-3.4 0,-1.1 0,-2.2 0.1,-3.3 0,-0.5 0.1,-1 0.2,-1.5 -0.7,-0.8 -1.2,-1.6 -1.6,-2.6 -0.1,-0.3 -0.5,-0.4 -0.8,-0.7 -5.2,-3.1 -9.7,-7.1 -13.6,-11.5 -4.2,-4.6 -7.9,-9.8 -11.3,-15 -0.3,-0.4 -0.5,-0.9 -0.9,-1.3 -0.5,-1 -0.8,-2.1 -0.7,-3.2 0.1,-0.5 0.2,-1.2 0.7,-1.5 0.4,-0.3 1.1,-0.4 1.5,-0.2 0.7,0.2 1.2,0.8 1.6,1.3 3.6,5.4 7.6,10.4 12,15 2.3,2.4 4.7,4.7 7.5,6.7 0.4,0.3 0.9,0.8 1.4,1 -0.2,-1.9 -0.3,-3.8 -0.4,-5.7 -0.1,-1.2 0,-2.5 -0.1,-3.7 -0.4,0.2 -0.8,0.7 -1.2,0.9 -0.8,0.5 -1.6,1 -2.5,1.2 -0.7,0.1 -1.3,0.1 -2,0 -0.9,-0.1 -1.6,-0.4 -2.3,-1 -0.7,-0.7 -1,-1.5 -1,-2.5 0,-1.4 0.3,-2.9 0.8,-4.2 1.1,-3.2 2.7,-6.2 4,-9.3 0.8,-1.8 1.5,-3.4 2.4,-5.1 0.3,-0.7 0.8,-1.4 1.2,-2.1 -3.4,-0.5 -6.8,-1.4 -10.1,-2.5 -5.6,-1.9 -11,-4.5 -15.4,-8.5 -2,-1.8 -3.7,-3.7 -5.2,-5.9 -0.3,-0.4 -0.4,-0.9 -0.8,-1.2 -1.4,1 -2.7,1.9 -4.1,2.9 -0.3,0.2 -0.5,0.4 -0.9,0.7 -0.1,-0.2 -0.3,-0.4 -0.4,-0.7 0.4,-0.4 1,-0.8 1.5,-1.1 1.1,-0.8 2.3,-1.5 3.4,-2.4 0.1,-0.1 0,-0.2 0,-0.3 -1.2,-2 -2,-4.2 -2.7,-6.4 -2.5,0.5 -5.1,1.1 -7.6,1.6 0,-0.2 -0.2,-0.5 -0.1,-0.8 2.4,-0.5 4.9,-1.1 7.5,-1.6 -0.3,-1.3 -0.7,-2.6 -1,-4 -0.2,-1.1 -0.3,-2.3 -0.5,-3.4 -2.7,0 -5.6,0 -8.3,0 v -0.8 c 2.5,0 5.1,0 7.5,0 0.2,0 0.4,0 0.8,0 -0.4,-4.8 -0.3,-9.7 0.1,-14.5 0.8,-7.4 2.6,-14.6 5.7,-21.3 0.1,-0.1 0.1,-0.3 0,-0.4 -2.3,-5.7 -3.5,-11.8 -3.6,-17.9 0,-4.2 0.4,-8.5 1.6,-12.5 1,-3.4 2.5,-6.7 5.1,-9.2 0.1,-0.1 0.2,-0.2 0.3,-0.3 0.6,0 1.1,0 1.7,0 m 23.4,49.7 c -3.8,0.3 -7.5,2.2 -10.1,4.9 -2.4,2.5 -3.8,5.8 -4.2,9.2 -0.3,3.2 0.3,6.6 2,9.3 1.3,2.4 3.3,4.4 5.7,5.8 3.8,2.3 8.7,2.9 13,1.5 1.8,-0.5 3.4,-1.4 4.8,-2.4 3.3,-2.4 5.6,-6.3 6.2,-10.3 0.2,-1.1 0.2,-2.3 0.1,-3.4 -0.2,-3.8 -1.9,-7.6 -4.6,-10.2 -2.2,-2.2 -4.9,-3.7 -8,-4.4 -1.6,-0.1 -3.3,-0.2 -4.9,0 m 59.2,0.3 c -4.2,0.3 -8.1,2.4 -10.8,5.6 -2.2,2.5 -3.5,5.8 -3.7,9.2 0,1.2 0,2.4 0.1,3.5 0.5,3.8 2.6,7.4 5.7,9.9 2.9,2.3 6.5,3.6 10.2,3.5 2.6,0 5.3,-0.7 7.6,-2 2.5,-1.4 4.6,-3.5 6,-5.9 1.8,-3.1 2.4,-6.7 2,-10.1 -0.4,-3.3 -1.9,-6.4 -4.2,-8.7 -2,-2.1 -4.4,-3.6 -7.1,-4.4 -1.9,-0.6 -3.8,-0.8 -5.8,-0.6 m -33.8,31.5 c 0,0.2 0.2,0.4 0.3,0.5 0.7,0.9 1.4,1.6 2.3,2.4 0.9,0.8 1.9,1.4 3,1.8 0.8,-0.2 1.4,-0.5 2.1,-1.1 1.3,-0.9 2.4,-2.1 3.4,-3.3 0.1,-0.1 0.2,-0.2 0.2,-0.4 -1.8,-0.8 -3.7,-1.1 -5.7,-1 -1.9,0.2 -3.9,0.4 -5.6,1.1 M 155.9,419 c 2,2.7 4.4,5.2 7.1,7.1 2.5,1.9 5.4,3.3 8.3,4.5 3.3,1.3 6.8,2.3 10.3,3.2 7.7,1.6 15.7,2.3 23.5,2.5 2.3,0.1 4.5,0.1 6.8,0.1 1.2,0 2.3,0 3.5,0 2,-0.1 4,0 5.8,-0.1 2.3,0 4.6,-0.2 6.9,-0.3 7.6,-0.5 15.3,-1.4 22.5,-3.6 3.3,-1 6.5,-2.3 9.6,-4 2.7,-1.5 5.4,-3.5 7.6,-5.8 1.1,-1.2 2.2,-2.4 3.1,-3.7 -13.7,0 -27.6,0 -41.3,0 -0.4,2.1 -1.6,4 -3.3,5.2 -1.3,1 -2.9,1.6 -4.5,1.8 -1,0.1 -2,0 -3,-0.2 -0.3,1.8 -1.2,3.3 -2.5,4.6 -0.8,0.7 -1.6,1.3 -2.6,1.4 -0.9,0.1 -1.9,-0.3 -2.5,-0.8 -1.8,-1.2 -3,-3.2 -3.4,-5.3 -1.4,0.3 -2.9,0.3 -4.3,0 -1.8,-0.4 -3.4,-1.4 -4.5,-2.7 -1,-1.1 -1.6,-2.5 -2,-4 -4.2,0 -8.3,0 -12.5,0 -9.5,0.1 -19,0.1 -28.6,0.1 m 57.1,2.9 c -0.9,1.3 -2,2.4 -3.4,3.1 -0.2,0.1 -0.1,0.3 -0.1,0.4 0.4,1.8 1.4,3.3 3,4.3 0.4,0.2 0.9,0.4 1.3,0.3 0.7,-0.2 1.1,-0.7 1.5,-1.1 1,-1 1.6,-2.3 1.9,-3.7 0.1,-0.2 -0.1,-0.2 -0.2,-0.3 -1.3,-0.7 -2.4,-1.8 -3.3,-3 -0.1,0 -0.3,0 -0.7,0 M 198.3,438 c -3.2,4.6 -5.1,10.1 -5.5,15.8 -0.1,2.3 0,4.5 0,6.8 0.1,1.9 0.2,3.8 0.5,5.7 0.3,1.5 0.8,3.1 1.4,4.4 0.7,1.4 1.8,2.7 3,3.7 1.2,1 2.5,1.6 4,2.1 1.6,0.5 3.3,0.9 4.9,1.1 2.3,0.3 4.7,0.4 7.1,0.3 2.1,0 4.1,-0.1 6.2,-0.3 1.8,-0.2 3.5,-0.5 5.3,-1.2 1.4,-0.5 2.9,-1.3 4,-2.3 1.2,-1 2.1,-2.3 2.7,-3.7 0.7,-1.4 1.1,-3 1.3,-4.5 0.3,-1.9 0.4,-3.7 0.5,-5.6 0.1,-2.3 0.1,-4.7 0,-7 -0.4,-5.4 -2.3,-10.8 -5.4,-15.3 -3.8,0.2 -7.7,0.3 -11.5,0.4 -4.3,0 -8.6,0 -12.9,-0.1 -1.6,-0.1 -3.6,-0.3 -5.6,-0.3 m 41.2,13.2 c 0,0.1 0.1,0.3 0.2,0.4 0.9,1.5 1.9,3 3.1,4.3 0.9,1 1.9,1.9 3.1,2.5 0.7,0.3 1.4,0.5 2.1,0.2 0.4,-0.1 0.7,-0.5 0.9,-1 0.2,-0.9 0.1,-1.9 0,-2.7 -0.4,-2.5 -1.2,-4.9 -2.1,-7.2 0,-0.1 -0.1,-0.2 -0.1,-0.3 -2.5,1.3 -4.8,2.6 -7.2,3.8 M 180,450 c -0.8,1.8 -1.5,3.5 -2,5.4 -0.1,0.8 -0.2,1.5 0,2.3 0.2,0.5 0.8,0.9 1.4,1 0.8,0.1 1.5,0.2 2.3,-0.1 1.2,-0.4 2.1,-1.3 3,-2.2 1.2,-1.3 2.3,-2.7 3.2,-4.3 -2.4,-1.3 -4.7,-2.6 -7.1,-4 -0.3,0.7 -0.5,1.2 -0.8,1.9 m 11.6,39.4 c 0.1,0.7 0.3,1.4 0.8,2 0.3,0.5 1,1 1.6,1.2 0.9,0.2 1.9,0.2 2.9,0.1 0.8,-0.1 1.4,-0.5 1.9,-1.2 0.4,-0.7 0.7,-1.3 0.9,-2.1 -2.8,0 -5.5,0 -8.1,0 m 35.8,0 c 0.1,0.9 0.4,1.6 1,2.3 0.5,0.7 1.4,0.9 2.2,1 0.8,0.1 1.6,0.1 2.4,-0.2 0.5,-0.2 1.1,-0.5 1.4,-1.1 0.4,-0.7 0.7,-1.3 0.9,-2.1 -2.6,0.1 -5.2,0.1 -7.9,0.1 z"
   id="path132" />
					<path
   class="st21"
   d="m 182.4,375.3 c 1.6,-0.1 3.3,-0.1 4.8,0.2 3,0.7 5.8,2.2 8,4.4 2.7,2.7 4.4,6.5 4.6,10.2 0,1.1 0,2.3 -0.1,3.4 -0.5,4.1 -2.9,7.8 -6.2,10.3 -1.4,1.1 -3.1,2 -4.8,2.4 -4.3,1.3 -9.1,0.8 -13,-1.5 -2.4,-1.4 -4.4,-3.5 -5.7,-5.8 -1.6,-2.9 -2.3,-6.2 -2,-9.3 0.3,-3.4 1.9,-6.7 4.2,-9.2 2.7,-3 6.3,-4.8 10.2,-5.1 m 0.1,4.8 c -2.1,0.2 -4.2,1.2 -5.8,2.5 -2.2,1.9 -3.7,4.7 -3.8,7.7 -0.2,2.7 0.8,5.6 2.5,7.8 1.8,2.2 4.5,3.6 7.2,4 2.5,0.3 5.1,-0.3 7.1,-1.6 1.9,-1.2 3.4,-3.1 4.3,-5.2 1.1,-2.9 1.1,-6.2 -0.2,-8.9 -1.1,-2.4 -3.2,-4.4 -5.6,-5.5 -1.6,-0.8 -3.7,-1 -5.7,-0.8 z"
   id="path134" />
					<path
   class="st21"
   d="m 241.6,375.6 c 2,-0.1 4,0 5.8,0.5 2.7,0.8 5.2,2.3 7.1,4.4 2.2,2.4 3.7,5.5 4.2,8.7 0.4,3.5 -0.2,7.1 -2,10.1 -1.4,2.5 -3.5,4.5 -6,5.9 -2.3,1.3 -4.9,2 -7.6,2 -3.6,0.1 -7.4,-1.2 -10.2,-3.5 -3,-2.4 -5.1,-6 -5.7,-9.9 -0.2,-1.2 -0.2,-2.3 -0.1,-3.5 0.2,-3.4 1.5,-6.6 3.7,-9.2 2.7,-3.1 6.6,-5.1 10.8,-5.5 m 0.1,4.5 c -1.4,0.2 -2.7,0.5 -4,1.3 -2.5,1.4 -4.5,3.8 -5.3,6.6 -0.5,1.8 -0.5,3.7 -0.2,5.6 0.7,2.9 2.5,5.5 5.1,7 2.9,1.8 6.4,2.1 9.6,1 2.6,-1 4.9,-3 6.2,-5.5 1.5,-3.1 1.5,-6.9 -0.1,-10 -1.2,-2.3 -3.3,-4.2 -5.7,-5.2 -2,-0.8 -3.8,-1 -5.6,-0.8 z"
   id="path136" />
					<path
   class="st22"
   d="m 182.5,380.1 c 2,-0.2 4,0 5.8,0.8 2.4,1.1 4.5,3.1 5.6,5.5 1.3,2.7 1.4,6 0.2,8.9 -0.9,2.1 -2.4,4 -4.3,5.2 -2.1,1.3 -4.7,2 -7.1,1.6 -2.9,-0.3 -5.5,-1.8 -7.2,-4 -1.8,-2.1 -2.7,-4.9 -2.5,-7.8 0.1,-3 1.6,-5.8 3.8,-7.7 1.5,-1.3 3.6,-2.3 5.7,-2.5 z"
   id="path138" />
					<path
   class="st22"
   d="m 241.7,380.1 c 1.8,-0.2 3.6,0 5.4,0.7 2.4,1 4.5,2.9 5.7,5.2 1.6,3.1 1.6,6.9 0.1,10 -1.2,2.5 -3.5,4.6 -6.2,5.5 -3.1,1.1 -6.7,0.8 -9.6,-1 -2.5,-1.5 -4.4,-4.1 -5.1,-7 -0.4,-1.9 -0.3,-3.7 0.2,-5.6 0.8,-2.7 2.7,-5.2 5.3,-6.6 1.5,-0.6 2.8,-1.1 4.2,-1.2 z"
   id="path140" />
					<path
   class="st23"
   d="m 207.8,407.1 c 1.8,-0.8 3.7,-1.1 5.7,-1 2,0 4,0.2 5.7,1 0,0.2 -0.1,0.3 -0.2,0.4 -1,1.2 -2.1,2.4 -3.4,3.3 -0.7,0.4 -1.3,0.9 -2.1,1.1 -1.1,-0.3 -2.1,-1 -3,-1.8 -0.9,-0.8 -1.6,-1.5 -2.3,-2.4 -0.2,-0.1 -0.4,-0.3 -0.4,-0.6 z"
   id="path142" />
					<path
   class="st21"
   d="m 155.9,419 c 9.6,0 19.1,0 28.7,0 4.2,0 8.3,0 12.5,0 0.3,1.4 1,2.9 2,4 1.2,1.3 2.7,2.3 4.5,2.7 1.4,0.3 2.9,0.3 4.3,0 0.4,2.1 1.6,4 3.4,5.3 0.8,0.5 1.6,0.9 2.5,0.8 1,-0.1 1.9,-0.8 2.6,-1.4 1.2,-1.2 2.1,-2.9 2.5,-4.6 1,0.2 2,0.3 3,0.2 1.6,-0.1 3.2,-0.8 4.5,-1.8 1.6,-1.2 2.9,-3.2 3.3,-5.2 13.7,0 27.6,0 41.3,0 -0.9,1.3 -2,2.5 -3.1,3.7 -2.2,2.3 -4.8,4.2 -7.6,5.8 -3,1.6 -6.3,3 -9.6,4 -7.2,2.2 -14.9,3.2 -22.5,3.6 -2.3,0.1 -4.6,0.2 -6.9,0.3 -2,0.1 -4,0 -5.8,0.1 -1.2,0 -2.3,0 -3.5,0 -2.3,0 -4.5,0 -6.8,-0.1 -7.9,-0.2 -15.8,-0.9 -23.5,-2.5 -3.5,-0.8 -7,-1.8 -10.3,-3.2 -3,-1.2 -5.8,-2.6 -8.3,-4.5 -2.7,-2 -5.2,-4.4 -7.2,-7.2 z"
   id="path144" />
					<path
   class="st24"
   d="m 213,421.9 c 0.2,0 0.5,0 0.8,0 0.8,1.2 2,2.3 3.3,3 0.1,0.1 0.3,0.1 0.2,0.3 -0.2,1.4 -1,2.7 -1.9,3.7 -0.4,0.4 -1,0.9 -1.5,1.1 -0.4,0.2 -1,-0.1 -1.3,-0.3 -1.5,-1 -2.5,-2.5 -3,-4.3 0,-0.1 -0.1,-0.4 0.1,-0.4 1.4,-0.7 2.6,-1.8 3.3,-3.1 z"
   id="path146" />
					<path
   class="st25"
   d="m 198.3,438 c 2,0.1 3.8,0.2 5.8,0.2 4.3,0.1 8.6,0.2 12.9,0.1 3.8,0 7.7,-0.2 11.5,-0.4 3.2,4.5 4.9,9.8 5.4,15.3 0.2,2.3 0.1,4.7 0,7 -0.1,1.9 -0.2,3.7 -0.5,5.6 -0.3,1.5 -0.7,3.1 -1.3,4.5 -0.7,1.4 -1.6,2.7 -2.7,3.7 -1.2,1 -2.5,1.8 -4,2.3 -1.6,0.7 -3.4,1 -5.3,1.2 -2,0.2 -4.1,0.3 -6.2,0.3 -2.4,0 -4.7,-0.1 -7.1,-0.3 -1.6,-0.2 -3.3,-0.5 -4.9,-1.1 -1.4,-0.5 -2.7,-1.2 -4,-2.1 -1.3,-1 -2.3,-2.3 -3,-3.7 -0.7,-1.4 -1.1,-2.9 -1.4,-4.4 -0.3,-1.9 -0.5,-3.7 -0.5,-5.7 -0.1,-2.3 -0.1,-4.5 0,-6.8 0.3,-5.6 2.1,-11.1 5.3,-15.7 z"
   id="path148" />
					<path
   class="st21"
   d="m 239.5,451.2 c 2.4,-1.3 4.7,-2.6 7.1,-3.8 0.1,0.1 0.1,0.2 0.1,0.3 0.9,2.4 1.8,4.7 2.1,7.2 0.1,0.9 0.2,1.9 0,2.7 -0.1,0.4 -0.4,0.8 -0.9,1 -0.7,0.2 -1.4,0.1 -2.1,-0.2 -1.2,-0.5 -2.2,-1.5 -3.1,-2.5 -1.2,-1.3 -2.2,-2.7 -3.1,-4.3 0,-0.1 -0.1,-0.2 -0.1,-0.4 z"
   id="path150" />
					<path
   class="st21"
   d="m 180,450 c 0.3,-0.5 0.5,-1.2 0.8,-1.8 2.4,1.3 4.7,2.6 7.1,4 -0.9,1.5 -2,3 -3.2,4.3 -0.9,0.9 -1.9,1.8 -3,2.2 -0.8,0.3 -1.5,0.2 -2.3,0.1 -0.5,-0.1 -1.2,-0.4 -1.4,-1 -0.3,-0.8 -0.2,-1.5 0,-2.3 0.4,-2 1.2,-3.8 2,-5.5 z"
   id="path152" />
					<path
   class="st21"
   d="m 191.6,489.4 c 2.6,0 5.3,0 7.9,0 -0.1,0.8 -0.4,1.5 -0.9,2.1 -0.4,0.7 -1.1,1 -1.9,1.2 -0.9,0.2 -1.9,0.2 -2.9,-0.1 -0.7,-0.2 -1.2,-0.7 -1.6,-1.2 -0.2,-0.5 -0.5,-1.3 -0.6,-2 z"
   id="path154" />
					<path
   class="st21"
   d="m 227.4,489.4 c 2.6,0 5.3,0 7.9,0 -0.1,0.8 -0.4,1.5 -0.9,2.1 -0.3,0.5 -0.9,0.9 -1.4,1.1 -0.8,0.2 -1.6,0.3 -2.4,0.2 -0.8,-0.1 -1.6,-0.4 -2.2,-1 -0.5,-0.7 -0.9,-1.5 -1,-2.4 z"
   id="path156" />
				</g>
			</g>
		</g>
		<g
   id="Calque_3"
   class="st2">
			<g
   id="g18964_2_"
   transform="matrix(0.43266284,0,0,0.44540976,307.19288,292.36616)"
   class="st13">
				<g
   id="layer3-3_2_">
				</g>
				<g
   id="layer4-7_2_"
   class="st2">
					<g
   id="g16252_2_"
   transform="matrix(1.588788,0,0,1.588808,-3219.717,-736.3813)"
   class="st13">
						<path
   id="path14367_2_"
   class="st26"
   d="m 2156.3,647.6 c -2,0 -4.1,0.1 -5.9,0.3 -0.1,5.6 -4.6,10 -10.2,10 -2.2,0 -4.2,-0.7 -5.8,-1.9 -1,-1 -2,-2.1 -3,-3.1 -2.3,1 -4.6,2.3 -6.8,3.6 0.8,0.7 1.5,1.5 2.3,2.2 0.4,0.4 0.9,0.9 1.3,1.3 l 0.1,0.1 c 9.6,10.3 16,23.5 18.1,38 -16.4,-2.3 -31,-10.2 -41.7,-21.7 -1.3,2.1 -2.5,4.4 -3.6,6.7 0.9,0.9 1.8,1.6 2.6,2.5 1.4,1.8 2.3,4.1 2.3,6.5 0,5.6 -4.5,10.1 -10,10.2 -0.2,1.9 -0.2,3.8 -0.2,5.8 0,2.1 0.1,4.2 0.3,6.3 5.5,0.1 10,4.6 10,10.2 0,2 -0.5,3.8 -1.5,5.5 -1.2,1 -2.3,2.1 -3.4,3.2 1.1,2.4 2.3,4.7 3.7,7 10.8,-11.4 25.3,-19.3 41.5,-21.6 -2.4,16.3 -10.3,30.6 -21.7,41.4 2.2,1.3 4.5,2.5 6.8,3.6 0.9,-0.9 1.8,-1.8 2.5,-2.6 1.8,-1.4 4,-2.3 6.4,-2.3 5.6,0 10.1,4.5 10.2,10 2,0.2 3.8,0.2 5.8,0.2 2.1,0 4.2,-0.1 6.3,-0.3 v 0 c 0.1,-5.5 4.6,-10 10.2,-10 2,0 3.8,0.5 5.5,1.5 1,1.2 2.1,2.3 3.2,3.3 2.4,-1.1 4.7,-2.3 7,-3.7 -11.3,-10.7 -19.2,-25 -21.6,-41.2 16.1,2.4 30.4,10.2 41.2,21.5 1.3,-2.3 2.6,-4.6 3.7,-7 -1,-1 -2,-2 -3.1,-3 -1.2,-1.6 -1.9,-3.7 -1.9,-5.8 0,-5.6 4.5,-10.1 10,-10.2 0.2,-2 0.3,-4 0.3,-6 0,-2 -0.1,-4.1 -0.3,-5.9 -5.5,-0.1 -10,-4.6 -10,-10.2 0,-2.2 0.7,-4.2 1.9,-5.9 1,-0.9 2.1,-1.9 3.1,-2.9 -1,-2.3 -2.3,-4.6 -3.6,-6.8 -0.8,0.8 -1.5,1.6 -2.3,2.4 -0.4,0.4 -0.9,0.9 -1.3,1.3 -10.2,9.4 -23.2,15.9 -37.7,18.1 2.3,-16.3 10.2,-30.8 21.6,-41.5 -2.3,-1.4 -4.6,-2.6 -7,-3.7 -1,1 -2,2 -2.9,3.1 -1.6,1.2 -3.7,1.9 -5.9,1.9 -5.6,0 -10.1,-4.5 -10.2,-10 -2.2,-0.3 -4.3,-0.4 -6.3,-0.4 z m 0,6.2 c 2.3,6.3 8.2,10.8 15.2,11.2 -7.9,11.9 -12.7,26 -13.1,41.3 15.3,-0.4 29.4,-5.2 41.3,-13.1 0.4,6.9 4.9,12.7 11.2,15.2 -6.3,2.3 -10.9,8.1 -11.2,15.2 -11.9,-7.9 -26,-12.7 -41.3,-13.1 0.4,15.3 5.2,29.4 13.1,41.3 -6.9,0.5 -12.6,5.1 -14.9,11.2 -2.3,-6.3 -8.3,-10.9 -15.4,-11.2 7.9,-11.9 12.7,-26 13.1,-41.3 -15.3,0.4 -29.4,5.2 -41.3,13.1 -0.5,-6.9 -5.1,-12.6 -11.2,-14.9 6.3,-2.3 10.9,-8.3 11.2,-15.4 11.9,7.9 26,12.7 41.3,13.1 -0.4,-15.3 -5.2,-29.4 -13.1,-41.3 7,-0.6 12.8,-5.1 15.1,-11.3 z" />
						<g
   id="g16238_2_">
							<path
   id="path14388_2_"
   class="st27"
   d="m 2163.1,648.6 c 0,3.7 -3.1,6.8 -6.8,6.8 -3.7,0 -6.8,-3.1 -6.8,-6.8 0,-3.7 3.1,-6.8 6.8,-6.8 3.7,0 6.8,3.1 6.8,6.8 z" />
							<path
   id="path14390_2_"
   class="st27"
   d="m 2132.4,653.2 c 1.9,3.3 0.8,7.4 -2.4,9.2 -3.3,1.9 -7.4,0.8 -9.2,-2.4 -1.9,-3.3 -0.8,-7.4 2.4,-9.2 3.1,-2 7.3,-0.8 9.2,2.4 z" />
							<path
   id="path14392_2_"
   class="st27"
   d="m 2120.6,756.7 c 1.9,-3.3 6,-4.4 9.2,-2.4 3.3,1.9 4.4,6 2.4,9.2 -2,3.2 -6,4.4 -9.2,2.4 -3.2,-1.7 -4.3,-5.9 -2.4,-9.2 z" />
							<path
   id="path14394_2_"
   class="st27"
   d="m 2149.6,768.1 c 0,-3.7 3.1,-6.8 6.8,-6.8 3.7,0 6.8,3.1 6.8,6.8 0,3.7 -3.1,6.8 -6.8,6.8 -3.7,0 -6.8,-3.1 -6.8,-6.8 z" />
							<path
   id="path14396_2_"
   class="st27"
   d="m 2180.4,763.5 c -1.9,-3.3 -0.8,-7.4 2.4,-9.2 3.2,-1.9 7.4,-0.8 9.2,2.4 1.9,3.3 0.8,7.4 -2.4,9.2 -3.2,1.9 -7.4,0.8 -9.2,-2.4 z" />
							<path
   id="path14398_2_"
   class="st27"
   d="m 2204.6,744.1 c -3.3,-1.9 -4.4,-6 -2.4,-9.2 1.9,-3.3 6,-4.4 9.2,-2.4 3.3,1.9 4.4,6 2.4,9.2 -1.7,3.1 -5.9,4.2 -9.2,2.4 z" />
							<path
   id="path14400_2_"
   class="st27"
   d="m 2216.1,715.2 c -3.7,0 -6.8,-3.1 -6.8,-6.8 0,-3.7 3.1,-6.8 6.8,-6.8 3.7,0 6.8,3.1 6.8,6.8 0,3.7 -3,6.8 -6.8,6.8 z" />
							<path
   id="path14402_2_"
   class="st27"
   d="m 2211.4,684.4 c -3.3,1.9 -7.4,0.8 -9.2,-2.4 -1.9,-3.3 -0.8,-7.4 2.4,-9.2 3.2,-1.9 7.4,-0.8 9.2,2.4 2,3.2 0.9,7.2 -2.4,9.2 z" />
							<path
   id="path14404_2_"
   class="st27"
   d="m 2192.1,660 c -1.9,3.3 -6,4.4 -9.2,2.4 -3.3,-1.9 -4.4,-6 -2.4,-9.2 1.9,-3.3 6,-4.4 9.2,-2.4 3.2,1.8 4.3,5.9 2.4,9.2 z" />
							<path
   id="path14406_2_"
   class="st27"
   d="m 2108,672.7 c 3.3,1.9 4.4,6 2.4,9.2 -1.9,3.3 -6,4.4 -9.2,2.4 -3.3,-1.9 -4.4,-6 -2.4,-9.2 1.8,-3.2 6,-4.3 9.2,-2.4 z" />
							<path
   id="path14408_2_"
   class="st27"
   d="m 2096.7,701.5 c 3.7,0 6.8,3.1 6.8,6.8 0,3.7 -3.1,6.8 -6.8,6.8 -3.7,0 -6.8,-3.1 -6.8,-6.8 -0.1,-3.7 2.9,-6.8 6.8,-6.8 z" />
							<path
   id="path14410_2_"
   class="st27"
   d="m 2101.2,732.3 c 3.3,-1.9 7.4,-0.8 9.2,2.4 1.9,3.3 0.8,7.4 -2.4,9.2 -3.2,1.9 -7.4,0.8 -9.2,-2.4 -1.8,-3.2 -0.8,-7.3 2.4,-9.2 z" />
						</g>
					</g>
				</g>
				<g
   id="layer2-9_2_">
				</g>
				<g
   id="layer1-0_2_">
				</g>
				<g
   id="g190">
					<path
   class="st19"
   d="m 141.4,373.6 c 6.7,-5.6 13.4,-11.2 20,-16.7 1.8,-1.5 3.7,-2.9 5.3,-4.5 1.6,-1.6 3.3,-1.9 5.2,-0.7 6.7,3.8 13.7,3.6 20.8,1.2 3.4,-1.2 6.9,-2.1 10.3,-3.2 3.4,-1.1 6.9,-1.2 10.3,0 2.2,0.7 4.5,1.2 6.7,2 7.4,2.6 14.5,2.3 21.4,-1.2 1.9,-0.9 3,-0.5 4.5,0.7 7.7,6.7 15.6,13.2 23.4,19.9 0.9,0.7 1.8,1.5 2.6,2.3 -3.1,5.3 -5.2,10.7 -5.8,16.6 -0.7,7.4 1.3,14.4 3.1,21.4 1.5,6.3 3.5,12.6 4.1,18.9 1.9,22.4 -6.6,40 -27.4,50.7 -11.3,5.8 -23.3,10.5 -35,15.7 -0.7,0.2 -1.6,0.3 -2.3,0.1 -14.1,-5.2 -28.3,-9.9 -41,-17.9 -14.3,-9.2 -23.6,-21.7 -26.9,-38.3 -1.6,-8.1 0.1,-16.1 2.1,-24.2 1.8,-7 3.5,-14.1 4.6,-21.2 1.1,-7.8 -1.3,-14.9 -6,-21.6 z m 65.8,97.1 c 3.8,-0.3 7.8,-0.4 11.6,-1 4.8,-0.8 5.5,-2 4.1,-6.4 -2.1,-6.9 -4.4,-13.7 -6.7,-20.5 -0.5,-1.8 -0.3,-2.7 1.2,-4 6.9,-5.5 9.1,-13.8 5.8,-21.4 -3.1,-7.4 -10.1,-11.3 -18.9,-10.7 -6.9,0.4 -12.6,5.3 -14.5,12.3 -2,7.4 1,15.3 7.8,19.8 1.6,1.1 2,2 1.5,3.8 -2.1,7.4 -4.1,14.8 -5.9,22.3 -0.9,3.3 -0.1,4.5 3.2,4.9 3.4,0.4 7,0.6 10.8,0.9 z"
   id="path182" />
					<path
   class="st19"
   d="m 147.5,364.4 c -2.6,-11.3 -4.1,-22.2 -2.7,-33.3 1.3,-11.1 5.2,-21.1 12.6,-29.5 8.7,-9.8 20,-15.3 32.6,-18.3 21.1,-5.2 40.8,-1.9 58.4,10.9 13.6,9.8 20.1,23.4 21.1,39.7 0.5,9.6 -0.7,19 -3.3,28.2 -0.1,0.5 -0.3,1 -0.7,2 -4.2,-3.5 -8.2,-6.9 -12.1,-10.5 -0.5,-0.4 -0.4,-1.9 -0.2,-2.6 1.2,-7.8 1.1,-15.7 -1,-23.4 -3.4,-12.1 -11,-21 -22.7,-26.1 -15.2,-6.7 -30.8,-7.2 -46,-0.4 -15.5,6.9 -23.2,19.2 -24.1,35.5 -0.2,4.9 0.5,9.9 0.9,14.9 0.1,1.6 0,2.7 -1.3,3.8 -3.8,2.5 -7.5,5.6 -11.5,9.1 z"
   id="path184" />
					<path
   d="m 207.2,470.7 c -3.7,-0.3 -7.4,-0.4 -10.9,-0.9 -3.4,-0.4 -4.1,-1.6 -3.2,-4.9 2,-7.5 3.8,-14.9 5.9,-22.3 0.5,-1.9 0.2,-2.7 -1.5,-3.8 -6.7,-4.5 -9.8,-12.4 -7.8,-19.8 1.9,-6.9 7.6,-11.8 14.5,-12.3 8.8,-0.5 15.7,3.3 18.9,10.7 3.3,7.7 1.2,15.9 -5.8,21.4 -1.5,1.2 -1.9,2.2 -1.2,4 2.3,6.8 4.5,13.6 6.7,20.5 1.4,4.5 0.8,5.6 -4.1,6.4 -3.8,0.5 -7.7,0.5 -11.5,1 z m -0.5,-41 c 3.5,0.1 6.5,-2.4 6.7,-5.8 0.2,-3.6 -2.4,-6.6 -6,-6.7 -3.7,-0.1 -6.7,2.4 -6.9,5.9 -0.2,3.4 2.7,6.5 6.2,6.6 z"
   id="path186" />
					<path
   class="st19"
   d="m 206.7,429.7 c -3.5,-0.1 -6.4,-3.2 -6.3,-6.6 0.2,-3.5 3.2,-6 6.9,-5.9 3.6,0.1 6.3,3.1 6,6.7 -0.1,3.3 -3.1,5.9 -6.6,5.8 z"
   id="path188" />
				</g>
			</g>
		</g>
		<g
   id="Calque_7"
   class="st2">
		</g>
	</g>
</g>
<g
   aria-label="CARACOS.net"
   id="text1031"
   style="font-style:normal;font-weight:normal;font-size:636.22px;line-height:1.25;font-family:sans-serif;fill:#000000;fill-opacity:1;stroke:#000000;stroke-width:15.9055;stroke-opacity:1"><path
     d="m 786.92914,387.52204 q -15.05261,0 -28.07108,-4.60977 -13.01846,-4.93904 -22.78232,-13.17077 -9.35702,-8.561 -15.0526,-19.42689 -5.28876,-10.86588 -5.28876,-22.71957 V 225.85083 q 0,-16.46345 9.35704,-29.9635 9.76385,-13.8293 26.03693,-21.73177 16.27308,-8.23173 35.80079,-8.23173 13.83212,0 26.03694,4.60977 12.61164,4.2805 21.96866,12.18297 9.76386,7.90246 15.86627,18.1098 h 7.32289 v 8.56101 h -27.25743 v -8.56101 h 7.72973 q -5.28876,-7.57319 -13.42531,-13.17077 -7.72971,-5.92684 -17.49356,-9.21953 -9.76386,-3.2927 -20.74819,-3.2927 -17.08674,0 -30.91886,7.24393 -13.4253,6.91465 -21.56184,18.43907 -7.72972,11.52443 -7.72972,25.02446 v 101.74421 q 0,14.15858 8.13655,25.683 8.13654,11.52442 21.56182,18.43907 13.83214,6.91466 30.51205,6.91466 16.27309,0 29.69838,-7.24393 13.4253,-7.24392 21.96868,-18.43907 h -7.72973 v -8.89027 h 27.25743 v 8.89027 h -7.32289 q -5.69559,9.87808 -15.45944,17.78054 -9.76385,7.90246 -22.37549,12.51223 -12.20482,4.2805 -26.03694,4.2805 z"
     style="font-style:normal;font-variant:normal;font-weight:normal;font-stretch:normal;font-family:Siegfried;-inkscape-font-specification:Siegfried;stroke:#000000;stroke-width:9.14996;stroke-opacity:1"
     id="path980" /><path
     d="m 1011.9043,386.53424 h -27.25741 v -8.89028 h 8.13652 l -2.84778,-9.54881 -86.65417,-40.50011 -15.05259,50.04892 h 8.13655 v 8.89028 h -26.85065 v -8.89028 h 8.13654 l 63.05824,-211.72013 63.05815,211.72013 h 8.1366 z M 986.27417,356.24146 940.70955,202.80199 906.12922,318.70476 Z"
     style="font-style:normal;font-variant:normal;font-weight:normal;font-stretch:normal;font-family:Siegfried;-inkscape-font-specification:Siegfried;stroke:#000000;stroke-width:9.14996;stroke-opacity:1"
     id="path982" /><path
     d="m 1172.1941,386.53424 h -26.8506 v -8.89028 h 2.0341 q -4.8818,-5.92685 -8.1365,-15.14638 -2.8478,-9.54881 -5.6956,-21.07323 -3.2546,-13.17077 -8.1366,-27.32936 -4.8819,-14.48784 -13.8321,-27.00008 -8.9502,-12.51223 -24.0028,-21.07322 -15.0526,-8.56101 -38.6486,-10.8659 v 122.48817 h 8.1366 v 8.89028 h -27.2574 v -8.89028 h 8.1365 V 175.80191 h -8.1365 v -8.89027 h 45.1578 q 32.953,0 51.2602,9.54881 20.3413,10.86588 20.3413,34.57327 0,20.74396 -18.3072,31.93912 -16.273,9.87807 -42.31,11.52442 19.9345,8.561 31.3256,22.71958 11.3912,14.15857 17.0869,30.62204 6.1024,16.46346 9.7637,31.93912 2.441,10.53661 5.2889,19.09762 2.8477,8.56099 6.5091,13.8293 4.0683,4.93904 10.1707,4.93904 h 6.1025 z m -97.2317,-140.59798 q 28.4778,0 43.1237,-6.91465 17.0867,-8.23174 17.0867,-27.98789 0,-19.42689 -19.1208,-28.31715 -15.4595,-6.91466 -41.0896,-6.91466 h -26.037 v 70.13435 z"
     style="font-style:normal;font-variant:normal;font-weight:normal;font-stretch:normal;font-family:Siegfried;-inkscape-font-specification:Siegfried;stroke:#000000;stroke-width:9.14996;stroke-opacity:1"
     id="path984" /><path
     d="m 1326.3812,386.53424 h -27.2574 v -8.89028 h 8.1366 l -2.8479,-9.54881 -86.6541,-40.50011 -15.0527,50.04892 h 8.1366 v 8.89028 h -26.8506 v -8.89028 h 8.1366 l 63.0582,-211.72013 63.0581,211.72013 h 8.1366 z m -25.6301,-30.29278 -45.5646,-153.43947 -34.5804,115.90277 z"
     style="font-style:normal;font-variant:normal;font-weight:normal;font-stretch:normal;font-family:Siegfried;-inkscape-font-specification:Siegfried;stroke:#000000;stroke-width:9.14996;stroke-opacity:1"
     id="path986" /><path
     d="m 1410.1874,387.52204 q -15.0526,0 -28.0711,-4.60977 -13.0185,-4.93904 -22.7823,-13.17077 -9.357,-8.561 -15.0526,-19.42689 -5.2887,-10.86588 -5.2887,-22.71957 V 225.85083 q 0,-16.46345 9.357,-29.9635 9.7638,-13.8293 26.0368,-21.73177 16.2732,-8.23173 35.8009,-8.23173 13.8321,0 26.037,4.60977 12.6115,4.2805 21.9686,12.18297 9.7638,7.90246 15.8663,18.1098 h 7.3229 v 8.56101 h -27.2575 v -8.56101 h 7.7297 q -5.2887,-7.57319 -13.4253,-13.17077 -7.7297,-5.92684 -17.4936,-9.21953 -9.7638,-3.2927 -20.7481,-3.2927 -17.0867,0 -30.9188,7.24393 -13.4254,6.91465 -21.5619,18.43907 -7.7297,11.52443 -7.7297,25.02446 v 101.74421 q 0,14.15858 8.1365,25.683 8.1365,11.52442 21.5619,18.43907 13.8321,6.91466 30.512,6.91466 16.2731,0 29.6983,-7.24393 13.4253,-7.24392 21.9687,-18.43907 h -7.7297 v -8.89027 h 27.2575 v 8.89027 h -7.3229 q -5.6957,9.87808 -15.4594,17.78054 -9.764,7.90246 -22.3755,12.51223 -12.2049,4.2805 -26.037,4.2805 z"
     style="font-style:normal;font-variant:normal;font-weight:normal;font-stretch:normal;font-family:Siegfried;-inkscape-font-specification:Siegfried;stroke:#000000;stroke-width:9.14996;stroke-opacity:1"
     id="path988" /><path
     d="m 1559.0859,165.92383 h 25.2233 q 12.2048,0 22.7823,3.95123 10.5775,3.62196 18.7141,9.87808 8.1365,6.58539 12.6115,15.14638 4.4752,8.56101 4.4752,18.43909 l -0.4069,126.76866 q 0,9.87807 -4.4751,18.43908 -4.4751,8.56099 -12.6115,15.14638 -8.1366,6.58538 -18.7142,10.20735 -10.5774,3.62196 -22.3754,3.62196 h -25.6302 q -11.7979,0 -22.3755,-3.62196 -10.5774,-3.62197 -18.714,-10.20735 -8.1366,-6.58539 -12.6116,-15.14638 -4.4751,-8.56101 -4.4751,-18.43908 l 0.4069,-126.76866 q 0,-9.87808 4.4751,-18.43909 4.475,-8.56099 12.6115,-15.14638 8.1366,-6.25612 18.7141,-9.87808 10.5775,-3.95123 22.3755,-3.95123 z m 25.2233,8.89027 h -25.2233 q -9.7638,0 -18.3072,2.96343 -8.5435,2.96342 -15.0526,8.23173 -6.5092,5.2683 -10.5775,12.51223 -3.6615,6.91465 -3.6615,14.81712 v 126.76866 q 0,8.23173 3.6615,15.14638 3.6614,6.91466 10.1706,12.18296 6.5092,5.26831 15.0526,8.561 8.5435,2.96342 18.3072,2.96342 h 25.6302 q 9.7639,0 18.3073,-2.96342 8.5432,-3.29269 15.0525,-8.561 6.5092,-5.2683 10.1707,-12.18296 3.6614,-6.91465 3.6614,-15.14638 l 0.4069,-126.76866 q 0,-7.90247 -3.6615,-14.81712 -3.6614,-7.24393 -10.1707,-12.51223 -6.5092,-5.26831 -15.0525,-8.23173 -8.5434,-2.96343 -18.7141,-2.96343 z"
     style="font-style:normal;font-variant:normal;font-weight:normal;font-stretch:normal;font-family:Siegfried;-inkscape-font-specification:Siegfried;stroke:#000000;stroke-width:9.14996;stroke-opacity:1"
     id="path990" /><path
     d="m 1735.242,387.52204 q -21.155,0 -43.9373,-8.23174 -11.798,-4.2805 -19.9345,-11.52442 h -9.3571 v -22.06103 h 10.5775 v 5.92684 l 2.441,4.60977 q 10.5775,16.79273 40.2759,21.07323 10.1706,1.64634 19.9345,1.64634 10.9843,0 21.5619,-3.62196 10.5775,-3.95123 19.1208,-10.86588 16.6799,-14.15858 17.4936,-30.9513 0,-20.74397 -10.5776,-35.56108 -10.1706,-15.1464 -27.6642,-26.67082 -17.0867,-11.52443 -37.0212,-21.4025 -15.0527,-7.57319 -27.2574,-15.14638 -12.2049,-7.5732 -19.5277,-16.1342 -6.9161,-8.89027 -6.9161,-19.75616 v -1.31707 q 1.2205,-12.8415 13.0185,-19.75615 11.798,-7.24393 26.0369,-9.54882 14.6458,-2.30488 26.0369,-2.30488 14.2389,0 30.512,3.62196 32.5462,7.24393 35.8008,26.67081 h 8.1366 v 8.89027 h -27.2574 v -8.89027 h 8.1365 q -2.0342,-7.57319 -10.9843,-12.18296 -8.9501,-4.60977 -20.3414,-6.91465 -12.6116,-2.30489 -24.0028,-2.30489 -26.0369,0 -42.7168,8.23174 -11.3912,5.59757 -11.3912,15.80491 0,8.56101 6.1025,15.80493 6.5091,7.57319 17.4934,14.48785 11.3912,6.58539 24.8165,13.17077 10.9844,5.92684 22.3755,12.18296 11.798,6.25611 21.9687,14.15858 10.1707,7.57319 18.3072,17.122 8.1366,9.21954 13.0185,21.07323 4.8819,11.52442 4.8819,26.34155 0,9.87807 -6.1024,20.08542 -5.6956,9.87807 -15.0525,17.45127 -8.9503,7.57319 -21.5619,12.18296 -12.6116,4.60977 -26.4438,4.60977 z"
     style="font-style:normal;font-variant:normal;font-weight:normal;font-stretch:normal;font-family:Siegfried;-inkscape-font-specification:Siegfried;stroke:#000000;stroke-width:9.14996;stroke-opacity:1"
     id="path992" /><path
     d="m 1826.3709,369.08296 q 2.8477,0 4.4751,1.64635 2.0341,1.64634 2.0341,3.62196 v 6.58538 q 0,2.30489 -2.0341,3.95124 -1.6274,1.64635 -4.4751,1.64635 -2.8478,0 -4.882,-1.64635 -2.0341,-1.64635 -2.0341,-3.95124 v -6.58538 q 0,-1.97562 2.0341,-3.62196 2.0342,-1.64635 4.882,-1.64635 z"
     style="font-style:normal;font-variant:normal;font-weight:normal;font-stretch:normal;font-family:Siegfried;-inkscape-font-specification:Siegfried;stroke:#000000;stroke-width:9.14996;stroke-opacity:1"
     id="path994" /><path
     d="m 1965.0988,386.53424 h -21.5618 v -8.89028 h 5.2888 V 259.43629 l -81.3655,-39.18303 v 157.3907 h 5.2887 v 8.89028 h -21.5617 v -8.89028 h 5.2886 V 219.59472 h -5.2886 v -8.561 h 17.9004 l 79.7381,38.19523 v -29.63423 h -5.2888 v -8.561 h 21.5618 v 8.561 h -5.2887 v 158.04924 h 5.2887 z"
     style="font-style:normal;font-variant:normal;font-weight:normal;font-stretch:normal;font-family:Siegfried;-inkscape-font-specification:Siegfried;stroke:#000000;stroke-width:9.14996;stroke-opacity:1"
     id="path996" /><path
     d="m 2054.6004,272.93634 v -4.60977 h -51.2603 v 109.31739 h 86.6543 v -9.54881 h 10.9843 v 18.43909 h -113.9116 v -8.89028 h 5.2887 V 219.59472 h -5.2887 v -8.561 h 113.9116 v 18.43907 h -10.9843 v -9.87807 h -86.6543 v 40.17084 h 51.2603 v -4.60977 h 10.9843 v 17.78055 z"
     style="font-style:normal;font-variant:normal;font-weight:normal;font-stretch:normal;font-family:Siegfried;-inkscape-font-specification:Siegfried;stroke:#000000;stroke-width:9.14996;stroke-opacity:1"
     id="path998" /><path
     d="m 2188.4459,386.53424 h -21.5619 v -8.89028 h 5.2887 V 219.59472 H 2131.49 v 8.89027 h -10.9843 v -17.45127 h 113.9116 v 17.45127 h -10.5775 v -8.89027 h -40.6828 v 158.04924 h 5.2889 z"
     style="font-style:normal;font-variant:normal;font-weight:normal;font-stretch:normal;font-family:Siegfried;-inkscape-font-specification:Siegfried;stroke:#000000;stroke-width:9.14996;stroke-opacity:1"
     id="path1000" /></g></svg>
